<?xml version="1.0" standalone="no"?>
  <!DOCTYPE svg PUBLIC "-//W3C//DTD SVG 1.1//EN" "http://www.w3.org/Graphics/SVG/1.1/DTD/svg11.dtd" >
  <svg>
  <metadata>
  Created by font-carrier
  </metadata>
  <defs>
  <font id="Montserrat-Regular" horiz-adv-x="1566" vert-adv-y="1566" >
    <font-face
      
      font-family="Montserrat"
      
      font-weight="400"
      
      font-stretch="normal"
      
      units-per-em="1000"
      
      ascent="968"
      
      descent="-251"
      
    />
      <missing-glyph />

      

      
      <glyph glyph-name="uni41" unicode="&#x41;" d="M2 0L322 700L395 700L715 0L637 0L343 657L373 657L79 0L2 0M128 187L150 247L557 247L579 187L128 187Z"  horiz-adv-x="717" vert-adv-y="1000"  />

      
      <glyph glyph-name="unic1" unicode="&#xc1;" d="M2 0L322 700L395 700L715 0L637 0L343 657L373 657L79 0L2 0M128 187L150 247L557 247L579 187L128 187Z"  horiz-adv-x="717" vert-adv-y="1000"  />

      
      <glyph glyph-name="uni0102" unicode="&#x0102;" d="M2 0L322 700L395 700L715 0L637 0L343 657L373 657L79 0L2 0M128 187L150 247L557 247L579 187L128 187Z"  horiz-adv-x="717" vert-adv-y="1000"  />

      
      <glyph glyph-name="uni1EAE" unicode="&#x1EAE;" d="M2 0L322 700L395 700L715 0L637 0L343 657L373 657L79 0L2 0M128 187L150 247L557 247L579 187L128 187Z"  horiz-adv-x="717" vert-adv-y="1000"  />

      
      <glyph glyph-name="uni1EB6" unicode="&#x1EB6;" d="M2 0L322 700L395 700L715 0L637 0L343 657L373 657L79 0L2 0M128 187L150 247L557 247L579 187L128 187M359-190Q342-190 329-178Q316-166 316-147Q316-128 329-116Q342-104 359-104Q377-104 389.50-116Q402-128 402-147Q402-166 389.50-178Q377-190 359-190Z"  horiz-adv-x="717" vert-adv-y="1000"  />

      
      <glyph glyph-name="uni1EB0" unicode="&#x1EB0;" d="M2 0L322 700L395 700L715 0L637 0L343 657L373 657L79 0L2 0M128 187L150 247L557 247L579 187L128 187Z"  horiz-adv-x="717" vert-adv-y="1000"  />

      
      <glyph glyph-name="uni1EB2" unicode="&#x1EB2;" d="M2 0L322 700L395 700L715 0L637 0L343 657L373 657L79 0L2 0M128 187L150 247L557 247L579 187L128 187Z"  horiz-adv-x="717" vert-adv-y="1000"  />

      
      <glyph glyph-name="uni1EB4" unicode="&#x1EB4;" d="M2 0L322 700L395 700L715 0L637 0L343 657L373 657L79 0L2 0M128 187L150 247L557 247L579 187L128 187Z"  horiz-adv-x="717" vert-adv-y="1000"  />

      
      <glyph glyph-name="uni01CD" unicode="&#x01CD;" d="M2 0L322 700L395 700L715 0L637 0L343 657L373 657L79 0L2 0M128 187L150 247L557 247L579 187L128 187Z"  horiz-adv-x="717" vert-adv-y="1000"  />

      
      <glyph glyph-name="unic2" unicode="&#xc2;" d="M2 0L322 700L395 700L715 0L637 0L343 657L373 657L79 0L2 0M128 187L150 247L557 247L579 187L128 187Z"  horiz-adv-x="717" vert-adv-y="1000"  />

      
      <glyph glyph-name="uni1EA4" unicode="&#x1EA4;" d="M2 0L322 700L395 700L715 0L637 0L343 657L373 657L79 0L2 0M128 187L150 247L557 247L579 187L128 187Z"  horiz-adv-x="717" vert-adv-y="1000"  />

      
      <glyph glyph-name="uni1EAC" unicode="&#x1EAC;" d="M2 0L322 700L395 700L715 0L637 0L343 657L373 657L79 0L2 0M128 187L150 247L557 247L579 187L128 187M359-190Q342-190 329-178Q316-166 316-147Q316-128 329-116Q342-104 359-104Q377-104 389.50-116Q402-128 402-147Q402-166 389.50-178Q377-190 359-190Z"  horiz-adv-x="717" vert-adv-y="1000"  />

      
      <glyph glyph-name="uni1EA6" unicode="&#x1EA6;" d="M2 0L322 700L395 700L715 0L637 0L343 657L373 657L79 0L2 0M128 187L150 247L557 247L579 187L128 187Z"  horiz-adv-x="717" vert-adv-y="1000"  />

      
      <glyph glyph-name="uni1EA8" unicode="&#x1EA8;" d="M2 0L322 700L395 700L715 0L637 0L343 657L373 657L79 0L2 0M128 187L150 247L557 247L579 187L128 187Z"  horiz-adv-x="717" vert-adv-y="1000"  />

      
      <glyph glyph-name="uni1EAA" unicode="&#x1EAA;" d="M2 0L322 700L395 700L715 0L637 0L343 657L373 657L79 0L2 0M128 187L150 247L557 247L579 187L128 187Z"  horiz-adv-x="717" vert-adv-y="1000"  />

      
      <glyph glyph-name="uni0200" unicode="&#x0200;" d="M2 0L322 700L395 700L715 0L637 0L343 657L373 657L79 0L2 0M128 187L150 247L557 247L579 187L128 187Z"  horiz-adv-x="717" vert-adv-y="1000"  />

      
      <glyph glyph-name="unic4" unicode="&#xc4;" d="M2 0L322 700L395 700L715 0L637 0L343 657L373 657L79 0L2 0M128 187L150 247L557 247L579 187L128 187Z"  horiz-adv-x="717" vert-adv-y="1000"  />

      
      <glyph glyph-name="uni1EA0" unicode="&#x1EA0;" d="M2 0L322 700L395 700L715 0L637 0L343 657L373 657L79 0L2 0M128 187L150 247L557 247L579 187L128 187M359-190Q342-190 329-178Q316-166 316-147Q316-128 329-116Q342-104 359-104Q377-104 389.50-116Q402-128 402-147Q402-166 389.50-178Q377-190 359-190Z"  horiz-adv-x="717" vert-adv-y="1000"  />

      
      <glyph glyph-name="unic0" unicode="&#xc0;" d="M2 0L322 700L395 700L715 0L637 0L343 657L373 657L79 0L2 0M128 187L150 247L557 247L579 187L128 187Z"  horiz-adv-x="717" vert-adv-y="1000"  />

      
      <glyph glyph-name="uni1EA2" unicode="&#x1EA2;" d="M2 0L322 700L395 700L715 0L637 0L343 657L373 657L79 0L2 0M128 187L150 247L557 247L579 187L128 187Z"  horiz-adv-x="717" vert-adv-y="1000"  />

      
      <glyph glyph-name="uni0202" unicode="&#x0202;" d="M2 0L322 700L395 700L715 0L637 0L343 657L373 657L79 0L2 0M128 187L150 247L557 247L579 187L128 187Z"  horiz-adv-x="717" vert-adv-y="1000"  />

      
      <glyph glyph-name="uni0100" unicode="&#x0100;" d="M2 0L322 700L395 700L715 0L637 0L343 657L373 657L79 0L2 0M128 187L150 247L557 247L579 187L128 187Z"  horiz-adv-x="717" vert-adv-y="1000"  />

      
      <glyph glyph-name="uni0104" unicode="&#x0104;" d="M2 0L322 700L395 700L715 0L637 0L343 657L373 657L79 0L2 0M128 187L150 247L557 247L579 187L128 187M651-220Q601-220 571-194Q541-168 541-125Q541-101 553.50-74.50Q566-48 597-22Q628 4 682 27L715 0Q667-21 640.50-41.50Q614-62 603.50-81.50Q593-101 593-120Q593-148 611.50-162Q630-176 658-176Q675-176 691.50-171Q708-166 720-157L736-196Q718-207 696.50-213.50Q675-220 651-220Z"  horiz-adv-x="717" vert-adv-y="1000"  />

      
      <glyph glyph-name="unic5" unicode="&#xc5;" d="M2 0L322 700L395 700L715 0L637 0L343 657L373 657L79 0L2 0M128 187L150 247L557 247L579 187L128 187M358 770Q328 770 304.50 784Q281 798 267.50 821Q254 844 254 872Q254 900 268 924Q282 948 305.50 962.50Q329 977 358 977Q388 977 411.50 962.50Q435 948 449 924Q463 900 463 872Q463 844 449 821Q435 798 411.50 784Q388 770 358 770M358 805Q388 805 407 824.50Q426 844 426 872Q426 901 407 921.50Q388 942 358 942Q329 942 310 922Q291 902 291 872Q291 843 309.50 824Q328 805 358 805Z"  horiz-adv-x="717" vert-adv-y="1000"  />

      
      <glyph glyph-name="uni01FA" unicode="&#x01FA;" d="M2 0L322 700L395 700L715 0L637 0L343 657L373 657L79 0L2 0M128 187L150 247L557 247L579 187L128 187M358 770Q328 770 304.50 784Q281 798 267.50 821Q254 844 254 872Q254 900 268 924Q282 948 305.50 962.50Q329 977 358 977Q388 977 411.50 962.50Q435 948 449 924Q463 900 463 872Q463 844 449 821Q435 798 411.50 784Q388 770 358 770M358 805Q388 805 407 824.50Q426 844 426 872Q426 901 407 921.50Q388 942 358 942Q329 942 310 922Q291 902 291 872Q291 843 309.50 824Q328 805 358 805M436 928L394 943L495 1043L535 1011L436 928Z"  horiz-adv-x="717" vert-adv-y="1000"  />

      
      <glyph glyph-name="unic3" unicode="&#xc3;" d="M2 0L322 700L395 700L715 0L637 0L343 657L373 657L79 0L2 0M128 187L150 247L557 247L579 187L128 187Z"  horiz-adv-x="717" vert-adv-y="1000"  />

      
      <glyph glyph-name="unic6" unicode="&#xc6;" d="M2 0L429 700L502 700L502 636L436 636L482 666L79 0L2 0M169 187L177 247L502 247L502 187L169 187M544 387L915 387L915 324L544 324L544 387M552 64L973 64L973 0L478 0L478 700L958 700L958 636L552 636L552 64Z"  horiz-adv-x="1033" vert-adv-y="1000"  />

      
      <glyph glyph-name="uni01FC" unicode="&#x01FC;" d="M2 0L429 700L502 700L502 636L436 636L482 666L79 0L2 0M169 187L177 247L502 247L502 187L169 187M544 387L915 387L915 324L544 324L544 387M552 64L973 64L973 0L478 0L478 700L958 700L958 636L552 636L552 64Z"  horiz-adv-x="1033" vert-adv-y="1000"  />

      
      <glyph glyph-name="uni42" unicode="&#x42;" d="M114 0L114 700L416 700Q533 700 597.50 653Q662 606 662 520Q662 463 635.50 424Q609 385 563.50 365Q518 345 464 345L481 369Q548 369 596.50 348.50Q645 328 672 287.50Q699 247 699 187Q699 98 633.50 49Q568 0 436 0L114 0M188 61L435 61Q527 61 576 92.50Q625 124 625 193Q625 261 576 292.50Q527 324 435 324L180 324L180 385L411 385Q495 385 541.50 417Q588 449 588 512Q588 576 541.50 607.50Q495 639 411 639L188 639L188 61Z"  horiz-adv-x="754" vert-adv-y="1000"  />

      
      <glyph glyph-name="uni43" unicode="&#x43;" d="M418-6Q339-6 272 20.50Q205 47 156 95Q107 143 79.50 208Q52 273 52 350Q52 427 79.50 492Q107 557 156.50 605Q206 653 273 679.50Q340 706 419 706Q495 706 562 680.50Q629 655 675 604L628 557Q585 601 533 620.50Q481 640 421 640Q358 640 304 618.50Q250 597 210 557.50Q170 518 147.50 465.50Q125 413 125 350Q125 287 147.50 234.50Q170 182 210 142.50Q250 103 304 81.50Q358 60 421 60Q481 60 533 80Q585 100 628 144L675 97Q629 46 562 20Q495-6 418-6Z"  horiz-adv-x="719" vert-adv-y="1000"  />

      
      <glyph glyph-name="uni0106" unicode="&#x0106;" d="M418-6Q339-6 272 20.50Q205 47 156 95Q107 143 79.50 208Q52 273 52 350Q52 427 79.50 492Q107 557 156.50 605Q206 653 273 679.50Q340 706 419 706Q495 706 562 680.50Q629 655 675 604L628 557Q585 601 533 620.50Q481 640 421 640Q358 640 304 618.50Q250 597 210 557.50Q170 518 147.50 465.50Q125 413 125 350Q125 287 147.50 234.50Q170 182 210 142.50Q250 103 304 81.50Q358 60 421 60Q481 60 533 80Q585 100 628 144L675 97Q629 46 562 20Q495-6 418-6Z"  horiz-adv-x="719" vert-adv-y="1000"  />

      
      <glyph glyph-name="uni010C" unicode="&#x010C;" d="M418-6Q339-6 272 20.50Q205 47 156 95Q107 143 79.50 208Q52 273 52 350Q52 427 79.50 492Q107 557 156.50 605Q206 653 273 679.50Q340 706 419 706Q495 706 562 680.50Q629 655 675 604L628 557Q585 601 533 620.50Q481 640 421 640Q358 640 304 618.50Q250 597 210 557.50Q170 518 147.50 465.50Q125 413 125 350Q125 287 147.50 234.50Q170 182 210 142.50Q250 103 304 81.50Q358 60 421 60Q481 60 533 80Q585 100 628 144L675 97Q629 46 562 20Q495-6 418-6Z"  horiz-adv-x="719" vert-adv-y="1000"  />

      
      <glyph glyph-name="unic7" unicode="&#xc7;" d="M418-6Q339-6 272 20.50Q205 47 156 95Q107 143 79.50 208Q52 273 52 350Q52 427 79.50 492Q107 557 156.50 605Q206 653 273 679.50Q340 706 419 706Q495 706 562 680.50Q629 655 675 604L628 557Q585 601 533 620.50Q481 640 421 640Q358 640 304 618.50Q250 597 210 557.50Q170 518 147.50 465.50Q125 413 125 350Q125 287 147.50 234.50Q170 182 210 142.50Q250 103 304 81.50Q358 60 421 60Q481 60 533 80Q585 100 628 144L675 97Q629 46 562 20Q495-6 418-6M382-220Q357-220 336.50-214Q316-208 298-197L315-159Q330-168 346.50-173Q363-178 381-178Q411-178 427-165.50Q443-153 443-131Q443-111 427.50-98Q412-85 381-85L358-85L382 6L425 6L410-52Q451-55 473-77.50Q495-100 495-133Q495-173 463.50-196.50Q432-220 382-220Z"  horiz-adv-x="719" vert-adv-y="1000"  />

      
      <glyph glyph-name="uni1E08" unicode="&#x1E08;" d="M418-6Q339-6 272 20.50Q205 47 156 95Q107 143 79.50 208Q52 273 52 350Q52 427 79.50 492Q107 557 156.50 605Q206 653 273 679.50Q340 706 419 706Q495 706 562 680.50Q629 655 675 604L628 557Q585 601 533 620.50Q481 640 421 640Q358 640 304 618.50Q250 597 210 557.50Q170 518 147.50 465.50Q125 413 125 350Q125 287 147.50 234.50Q170 182 210 142.50Q250 103 304 81.50Q358 60 421 60Q481 60 533 80Q585 100 628 144L675 97Q629 46 562 20Q495-6 418-6M382-220Q357-220 336.50-214Q316-208 298-197L315-159Q330-168 346.50-173Q363-178 381-178Q411-178 427-165.50Q443-153 443-131Q443-111 427.50-98Q412-85 381-85L358-85L382 6L425 6L410-52Q451-55 473-77.50Q495-100 495-133Q495-173 463.50-196.50Q432-220 382-220Z"  horiz-adv-x="719" vert-adv-y="1000"  />

      
      <glyph glyph-name="uni0108" unicode="&#x0108;" d="M418-6Q339-6 272 20.50Q205 47 156 95Q107 143 79.50 208Q52 273 52 350Q52 427 79.50 492Q107 557 156.50 605Q206 653 273 679.50Q340 706 419 706Q495 706 562 680.50Q629 655 675 604L628 557Q585 601 533 620.50Q481 640 421 640Q358 640 304 618.50Q250 597 210 557.50Q170 518 147.50 465.50Q125 413 125 350Q125 287 147.50 234.50Q170 182 210 142.50Q250 103 304 81.50Q358 60 421 60Q481 60 533 80Q585 100 628 144L675 97Q629 46 562 20Q495-6 418-6Z"  horiz-adv-x="719" vert-adv-y="1000"  />

      
      <glyph glyph-name="uni010A" unicode="&#x010A;" d="M418-6Q339-6 272 20.50Q205 47 156 95Q107 143 79.50 208Q52 273 52 350Q52 427 79.50 492Q107 557 156.50 605Q206 653 273 679.50Q340 706 419 706Q495 706 562 680.50Q629 655 675 604L628 557Q585 601 533 620.50Q481 640 421 640Q358 640 304 618.50Q250 597 210 557.50Q170 518 147.50 465.50Q125 413 125 350Q125 287 147.50 234.50Q170 182 210 142.50Q250 103 304 81.50Q358 60 421 60Q481 60 533 80Q585 100 628 144L675 97Q629 46 562 20Q495-6 418-6Z"  horiz-adv-x="719" vert-adv-y="1000"  />

      
      <glyph glyph-name="uni44" unicode="&#x44;" d="M114 0L114 700L399 700Q511 700 595.50 655.50Q680 611 727 532Q774 453 774 350Q774 247 727 168Q680 89 595.50 44.50Q511 0 399 0L114 0M188 64L395 64Q488 64 556.50 100.50Q625 137 663 201.50Q701 266 701 350Q701 435 663 499Q625 563 556.50 599.50Q488 636 395 636L188 636L188 64Z"  horiz-adv-x="826" vert-adv-y="1000"  />

      
      <glyph glyph-name="uni01C4" unicode="&#x01C4;" d="M114 0L114 700L399 700Q511 700 595.50 655.50Q680 611 727 532Q774 453 774 350Q774 247 727 168Q680 89 595.50 44.50Q511 0 399 0L114 0M188 64L395 64Q488 64 556.50 100.50Q625 137 663 201.50Q701 266 701 350Q701 435 663 499Q625 563 556.50 599.50Q488 636 395 636L188 636L188 64Z"  horiz-adv-x="1456" vert-adv-y="1000"  />

      
      <glyph glyph-name="unid0" unicode="&#xd0;" d="M119 0L119 700L404 700Q516 700 600.50 655.50Q685 611 732 532Q779 453 779 350Q779 247 732 168Q685 89 600.50 44.50Q516 0 404 0L119 0M193 64L400 64Q493 64 561.50 100.50Q630 137 668 201.50Q706 266 706 350Q706 435 668 499Q630 563 561.50 599.50Q493 636 400 636L193 636L193 64M13 327L13 386L401 386L401 327L13 327Z"  horiz-adv-x="831" vert-adv-y="1000"  />

      
      <glyph glyph-name="uni010E" unicode="&#x010E;" d="M114 0L114 700L399 700Q511 700 595.50 655.50Q680 611 727 532Q774 453 774 350Q774 247 727 168Q680 89 595.50 44.50Q511 0 399 0L114 0M188 64L395 64Q488 64 556.50 100.50Q625 137 663 201.50Q701 266 701 350Q701 435 663 499Q625 563 556.50 599.50Q488 636 395 636L188 636L188 64Z"  horiz-adv-x="826" vert-adv-y="1000"  />

      
      <glyph glyph-name="uni0110" unicode="&#x0110;" d="M119 0L119 700L404 700Q516 700 600.50 655.50Q685 611 732 532Q779 453 779 350Q779 247 732 168Q685 89 600.50 44.50Q516 0 404 0L119 0M193 64L400 64Q493 64 561.50 100.50Q630 137 668 201.50Q706 266 706 350Q706 435 668 499Q630 563 561.50 599.50Q493 636 400 636L193 636L193 64M13 327L13 386L401 386L401 327L13 327Z"  horiz-adv-x="831" vert-adv-y="1000"  />

      
      <glyph glyph-name="uni1E0C" unicode="&#x1E0C;" d="M114 0L114 700L399 700Q511 700 595.50 655.50Q680 611 727 532Q774 453 774 350Q774 247 727 168Q680 89 595.50 44.50Q511 0 399 0L114 0M188 64L395 64Q488 64 556.50 100.50Q625 137 663 201.50Q701 266 701 350Q701 435 663 499Q625 563 556.50 599.50Q488 636 395 636L188 636L188 64M388-190Q371-190 358-178Q345-166 345-147Q345-128 358-116Q371-104 388-104Q406-104 418.50-116Q431-128 431-147Q431-166 418.50-178Q406-190 388-190Z"  horiz-adv-x="826" vert-adv-y="1000"  />

      
      <glyph glyph-name="uni1E0E" unicode="&#x1E0E;" d="M114 0L114 700L399 700Q511 700 595.50 655.50Q680 611 727 532Q774 453 774 350Q774 247 727 168Q680 89 595.50 44.50Q511 0 399 0L114 0M188 64L395 64Q488 64 556.50 100.50Q625 137 663 201.50Q701 266 701 350Q701 435 663 499Q625 563 556.50 599.50Q488 636 395 636L188 636L188 64M234-169L234-122L542-122L542-169L234-169Z"  horiz-adv-x="826" vert-adv-y="1000"  />

      
      <glyph glyph-name="uni01C5" unicode="&#x01C5;" d="M114 0L114 700L399 700Q511 700 595.50 655.50Q680 611 727 532Q774 453 774 350Q774 247 727 168Q680 89 595.50 44.50Q511 0 399 0L114 0M188 64L395 64Q488 64 556.50 100.50Q625 137 663 201.50Q701 266 701 350Q701 435 663 499Q625 563 556.50 599.50Q488 636 395 636L188 636L188 64Z"  horiz-adv-x="1337" vert-adv-y="1000"  />

      
      <glyph glyph-name="uni45" unicode="&#x45;" d="M180 387L550 387L550 324L180 324L180 387M188 64L609 64L609 0L114 0L114 700L594 700L594 636L188 636L188 64Z"  horiz-adv-x="669" vert-adv-y="1000"  />

      
      <glyph glyph-name="unic9" unicode="&#xc9;" d="M180 387L550 387L550 324L180 324L180 387M188 64L609 64L609 0L114 0L114 700L594 700L594 636L188 636L188 64Z"  horiz-adv-x="669" vert-adv-y="1000"  />

      
      <glyph glyph-name="uni0114" unicode="&#x0114;" d="M180 387L550 387L550 324L180 324L180 387M188 64L609 64L609 0L114 0L114 700L594 700L594 636L188 636L188 64Z"  horiz-adv-x="669" vert-adv-y="1000"  />

      
      <glyph glyph-name="uni011A" unicode="&#x011A;" d="M180 387L550 387L550 324L180 324L180 387M188 64L609 64L609 0L114 0L114 700L594 700L594 636L188 636L188 64Z"  horiz-adv-x="669" vert-adv-y="1000"  />

      
      <glyph glyph-name="uni1E1C" unicode="&#x1E1C;" d="M180 387L550 387L550 324L180 324L180 387M188 64L609 64L609 0L114 0L114 700L594 700L594 636L188 636L188 64M346-220Q321-220 300.50-214Q280-208 262-197L279-159Q294-168 310.50-173Q327-178 345-178Q375-178 391-165.50Q407-153 407-131Q407-111 391.50-98Q376-85 345-85L322-85L346 6L389 6L374-52Q415-55 437-77.50Q459-100 459-133Q459-173 427.50-196.50Q396-220 346-220Z"  horiz-adv-x="669" vert-adv-y="1000"  />

      
      <glyph glyph-name="unica" unicode="&#xca;" d="M180 387L550 387L550 324L180 324L180 387M188 64L609 64L609 0L114 0L114 700L594 700L594 636L188 636L188 64Z"  horiz-adv-x="669" vert-adv-y="1000"  />

      
      <glyph glyph-name="uni1EBE" unicode="&#x1EBE;" d="M180 387L550 387L550 324L180 324L180 387M188 64L609 64L609 0L114 0L114 700L594 700L594 636L188 636L188 64Z"  horiz-adv-x="669" vert-adv-y="1000"  />

      
      <glyph glyph-name="uni1EC6" unicode="&#x1EC6;" d="M180 387L550 387L550 324L180 324L180 387M188 64L609 64L609 0L114 0L114 700L594 700L594 636L188 636L188 64M368-190Q351-190 338-178Q325-166 325-147Q325-128 338-116Q351-104 368-104Q386-104 398.50-116Q411-128 411-147Q411-166 398.50-178Q386-190 368-190Z"  horiz-adv-x="669" vert-adv-y="1000"  />

      
      <glyph glyph-name="uni1EC0" unicode="&#x1EC0;" d="M180 387L550 387L550 324L180 324L180 387M188 64L609 64L609 0L114 0L114 700L594 700L594 636L188 636L188 64Z"  horiz-adv-x="669" vert-adv-y="1000"  />

      
      <glyph glyph-name="uni1EC2" unicode="&#x1EC2;" d="M180 387L550 387L550 324L180 324L180 387M188 64L609 64L609 0L114 0L114 700L594 700L594 636L188 636L188 64Z"  horiz-adv-x="669" vert-adv-y="1000"  />

      
      <glyph glyph-name="uni1EC4" unicode="&#x1EC4;" d="M180 387L550 387L550 324L180 324L180 387M188 64L609 64L609 0L114 0L114 700L594 700L594 636L188 636L188 64Z"  horiz-adv-x="669" vert-adv-y="1000"  />

      
      <glyph glyph-name="uni0204" unicode="&#x0204;" d="M180 387L550 387L550 324L180 324L180 387M188 64L609 64L609 0L114 0L114 700L594 700L594 636L188 636L188 64Z"  horiz-adv-x="669" vert-adv-y="1000"  />

      
      <glyph glyph-name="unicb" unicode="&#xcb;" d="M180 387L550 387L550 324L180 324L180 387M188 64L609 64L609 0L114 0L114 700L594 700L594 636L188 636L188 64Z"  horiz-adv-x="669" vert-adv-y="1000"  />

      
      <glyph glyph-name="uni0116" unicode="&#x0116;" d="M180 387L550 387L550 324L180 324L180 387M188 64L609 64L609 0L114 0L114 700L594 700L594 636L188 636L188 64Z"  horiz-adv-x="669" vert-adv-y="1000"  />

      
      <glyph glyph-name="uni1EB8" unicode="&#x1EB8;" d="M180 387L550 387L550 324L180 324L180 387M188 64L609 64L609 0L114 0L114 700L594 700L594 636L188 636L188 64M368-190Q351-190 338-178Q325-166 325-147Q325-128 338-116Q351-104 368-104Q386-104 398.50-116Q411-128 411-147Q411-166 398.50-178Q386-190 368-190Z"  horiz-adv-x="669" vert-adv-y="1000"  />

      
      <glyph glyph-name="unic8" unicode="&#xc8;" d="M180 387L550 387L550 324L180 324L180 387M188 64L609 64L609 0L114 0L114 700L594 700L594 636L188 636L188 64Z"  horiz-adv-x="669" vert-adv-y="1000"  />

      
      <glyph glyph-name="uni1EBA" unicode="&#x1EBA;" d="M180 387L550 387L550 324L180 324L180 387M188 64L609 64L609 0L114 0L114 700L594 700L594 636L188 636L188 64Z"  horiz-adv-x="669" vert-adv-y="1000"  />

      
      <glyph glyph-name="uni0206" unicode="&#x0206;" d="M180 387L550 387L550 324L180 324L180 387M188 64L609 64L609 0L114 0L114 700L594 700L594 636L188 636L188 64Z"  horiz-adv-x="669" vert-adv-y="1000"  />

      
      <glyph glyph-name="uni0112" unicode="&#x0112;" d="M180 387L550 387L550 324L180 324L180 387M188 64L609 64L609 0L114 0L114 700L594 700L594 636L188 636L188 64Z"  horiz-adv-x="669" vert-adv-y="1000"  />

      
      <glyph glyph-name="uni1E16" unicode="&#x1E16;" d="M180 387L550 387L550 324L180 324L180 387M188 64L609 64L609 0L114 0L114 700L594 700L594 636L188 636L188 64Z"  horiz-adv-x="669" vert-adv-y="1000"  />

      
      <glyph glyph-name="uni1E14" unicode="&#x1E14;" d="M180 387L550 387L550 324L180 324L180 387M188 64L609 64L609 0L114 0L114 700L594 700L594 636L188 636L188 64Z"  horiz-adv-x="669" vert-adv-y="1000"  />

      
      <glyph glyph-name="uni0118" unicode="&#x0118;" d="M180 387L550 387L550 324L180 324L180 387M188 64L609 64L609 0L114 0L114 700L594 700L594 636L188 636L188 64M545-220Q495-220 465-194Q435-168 435-125Q435-101 447.50-74.50Q460-48 491-22Q522 4 576 27L609 0Q561-21 534.50-41.50Q508-62 497.50-81.50Q487-101 487-120Q487-148 505.50-162Q524-176 552-176Q569-176 585.50-171Q602-166 614-157L630-196Q612-207 590.50-213.50Q569-220 545-220Z"  horiz-adv-x="669" vert-adv-y="1000"  />

      
      <glyph glyph-name="uni1EBC" unicode="&#x1EBC;" d="M180 387L550 387L550 324L180 324L180 387M188 64L609 64L609 0L114 0L114 700L594 700L594 636L188 636L188 64Z"  horiz-adv-x="669" vert-adv-y="1000"  />

      
      <glyph glyph-name="uni01B7" unicode="&#x01B7;" d="M295-6Q212-6 142 18.50Q72 43 32 82L61 140Q97 105 158 81.50Q219 58 293 58Q387 58 436.50 96.50Q486 135 486 201Q486 265 437 303Q388 341 284 341L232 341L232 393L465 664L471 637L58 637L58 700L529 700L529 649L297 378L268 400L295 400Q384 400 442.50 375Q501 350 530.50 305Q560 260 560 201Q560 142 530.50 95Q501 48 442 21Q383-6 295-6Z"  horiz-adv-x="615" vert-adv-y="1000"  />

      
      <glyph glyph-name="uni01EE" unicode="&#x01EE;" d="M295-6Q212-6 142 18.50Q72 43 32 82L61 140Q97 105 158 81.50Q219 58 293 58Q387 58 436.50 96.50Q486 135 486 201Q486 265 437 303Q388 341 284 341L232 341L232 393L465 664L471 637L58 637L58 700L529 700L529 649L297 378L268 400L295 400Q384 400 442.50 375Q501 350 530.50 305Q560 260 560 201Q560 142 530.50 95Q501 48 442 21Q383-6 295-6Z"  horiz-adv-x="615" vert-adv-y="1000"  />

      
      <glyph glyph-name="uni46" unicode="&#x46;" d="M180 361L550 361L550 297L180 297L180 361M188 0L114 0L114 700L594 700L594 636L188 636L188 0Z"  horiz-adv-x="633" vert-adv-y="1000"  />

      
      <glyph glyph-name="uni47" unicode="&#x47;" d="M421-6Q341-6 273.50 20.50Q206 47 156.50 95Q107 143 79.50 208Q52 273 52 350Q52 427 79.50 492Q107 557 157 605Q207 653 274.50 679.50Q342 706 422 706Q502 706 568.50 681Q635 656 682 605L636 558Q592 602 539 621Q486 640 425 640Q360 640 305.50 618.50Q251 597 210.50 557.50Q170 518 147.50 465.50Q125 413 125 350Q125 288 147.50 235Q170 182 210.50 142.50Q251 103 305.50 81.50Q360 60 424 60Q484 60 537.50 78Q591 96 636 139L678 83Q628 39 561 16.50Q494-6 421-6M607 92L607 350L678 350L678 83L607 92Z"  horiz-adv-x="773" vert-adv-y="1000"  />

      
      <glyph glyph-name="uni011E" unicode="&#x011E;" d="M421-6Q341-6 273.50 20.50Q206 47 156.50 95Q107 143 79.50 208Q52 273 52 350Q52 427 79.50 492Q107 557 157 605Q207 653 274.50 679.50Q342 706 422 706Q502 706 568.50 681Q635 656 682 605L636 558Q592 602 539 621Q486 640 425 640Q360 640 305.50 618.50Q251 597 210.50 557.50Q170 518 147.50 465.50Q125 413 125 350Q125 288 147.50 235Q170 182 210.50 142.50Q251 103 305.50 81.50Q360 60 424 60Q484 60 537.50 78Q591 96 636 139L678 83Q628 39 561 16.50Q494-6 421-6M607 92L607 350L678 350L678 83L607 92Z"  horiz-adv-x="773" vert-adv-y="1000"  />

      
      <glyph glyph-name="uni01E6" unicode="&#x01E6;" d="M421-6Q341-6 273.50 20.50Q206 47 156.50 95Q107 143 79.50 208Q52 273 52 350Q52 427 79.50 492Q107 557 157 605Q207 653 274.50 679.50Q342 706 422 706Q502 706 568.50 681Q635 656 682 605L636 558Q592 602 539 621Q486 640 425 640Q360 640 305.50 618.50Q251 597 210.50 557.50Q170 518 147.50 465.50Q125 413 125 350Q125 288 147.50 235Q170 182 210.50 142.50Q251 103 305.50 81.50Q360 60 424 60Q484 60 537.50 78Q591 96 636 139L678 83Q628 39 561 16.50Q494-6 421-6M607 92L607 350L678 350L678 83L607 92Z"  horiz-adv-x="773" vert-adv-y="1000"  />

      
      <glyph glyph-name="uni011C" unicode="&#x011C;" d="M421-6Q341-6 273.50 20.50Q206 47 156.50 95Q107 143 79.50 208Q52 273 52 350Q52 427 79.50 492Q107 557 157 605Q207 653 274.50 679.50Q342 706 422 706Q502 706 568.50 681Q635 656 682 605L636 558Q592 602 539 621Q486 640 425 640Q360 640 305.50 618.50Q251 597 210.50 557.50Q170 518 147.50 465.50Q125 413 125 350Q125 288 147.50 235Q170 182 210.50 142.50Q251 103 305.50 81.50Q360 60 424 60Q484 60 537.50 78Q591 96 636 139L678 83Q628 39 561 16.50Q494-6 421-6M607 92L607 350L678 350L678 83L607 92Z"  horiz-adv-x="773" vert-adv-y="1000"  />

      
      <glyph glyph-name="uni0122" unicode="&#x0122;" d="M421-6Q341-6 273.50 20.50Q206 47 156.50 95Q107 143 79.50 208Q52 273 52 350Q52 427 79.50 492Q107 557 157 605Q207 653 274.50 679.50Q342 706 422 706Q502 706 568.50 681Q635 656 682 605L636 558Q592 602 539 621Q486 640 425 640Q360 640 305.50 618.50Q251 597 210.50 557.50Q170 518 147.50 465.50Q125 413 125 350Q125 288 147.50 235Q170 182 210.50 142.50Q251 103 305.50 81.50Q360 60 424 60Q484 60 537.50 78Q591 96 636 139L678 83Q628 39 561 16.50Q494-6 421-6M607 92L607 350L678 350L678 83L607 92M369-262L397-154L404-182Q385-182 373-171Q361-160 361-143Q361-126 373-115Q385-104 404-104Q424-104 435.50-115.50Q447-127 447-143Q447-153 444.50-164Q442-175 436-188L408-262L369-262Z"  horiz-adv-x="773" vert-adv-y="1000"  />

      
      <glyph glyph-name="uni0120" unicode="&#x0120;" d="M421-6Q341-6 273.50 20.50Q206 47 156.50 95Q107 143 79.50 208Q52 273 52 350Q52 427 79.50 492Q107 557 157 605Q207 653 274.50 679.50Q342 706 422 706Q502 706 568.50 681Q635 656 682 605L636 558Q592 602 539 621Q486 640 425 640Q360 640 305.50 618.50Q251 597 210.50 557.50Q170 518 147.50 465.50Q125 413 125 350Q125 288 147.50 235Q170 182 210.50 142.50Q251 103 305.50 81.50Q360 60 424 60Q484 60 537.50 78Q591 96 636 139L678 83Q628 39 561 16.50Q494-6 421-6M607 92L607 350L678 350L678 83L607 92Z"  horiz-adv-x="773" vert-adv-y="1000"  />

      
      <glyph glyph-name="uni1E20" unicode="&#x1E20;" d="M421-6Q341-6 273.50 20.50Q206 47 156.50 95Q107 143 79.50 208Q52 273 52 350Q52 427 79.50 492Q107 557 157 605Q207 653 274.50 679.50Q342 706 422 706Q502 706 568.50 681Q635 656 682 605L636 558Q592 602 539 621Q486 640 425 640Q360 640 305.50 618.50Q251 597 210.50 557.50Q170 518 147.50 465.50Q125 413 125 350Q125 288 147.50 235Q170 182 210.50 142.50Q251 103 305.50 81.50Q360 60 424 60Q484 60 537.50 78Q591 96 636 139L678 83Q628 39 561 16.50Q494-6 421-6M607 92L607 350L678 350L678 83L607 92Z"  horiz-adv-x="773" vert-adv-y="1000"  />

      
      <glyph glyph-name="uni01E4" unicode="&#x01E4;" d="M407 206L407 266L783 266L783 206L407 206M421-6Q341-6 273.50 20.50Q206 47 156.50 95Q107 143 79.50 208Q52 273 52 350Q52 427 79.50 492Q107 557 157 605Q207 653 274.50 679.50Q342 706 422 706Q502 706 568.50 681Q635 656 682 605L636 558Q592 602 539 621Q486 640 425 640Q360 640 305.50 618.50Q251 597 210.50 557.50Q170 518 147.50 465.50Q125 413 125 350Q125 288 147.50 235Q170 182 210.50 142.50Q251 103 305.50 81.50Q360 60 424 60Q484 60 537.50 78Q591 96 636 139L678 83Q628 39 561 16.50Q494-6 421-6M607 92L607 350L678 350L678 83L607 92Z"  horiz-adv-x="806" vert-adv-y="1000"  />

      
      <glyph glyph-name="uni48" unicode="&#x48;" d="M626 700L699 700L699 0L626 0L626 700M188 0L114 0L114 700L188 700L188 0M633 323L180 323L180 388L633 388L633 323Z"  horiz-adv-x="813" vert-adv-y="1000"  />

      
      <glyph glyph-name="uni0126" unicode="&#x0126;" d="M631 700L704 700L704 0L631 0L631 700M193 0L119 0L119 700L193 700L193 0M638 323L185 323L185 388L638 388L638 323M12 518L12 578L809 578L809 518L12 518Z"  horiz-adv-x="823" vert-adv-y="1000"  />

      
      <glyph glyph-name="uni1E2A" unicode="&#x1E2A;" d="M626 700L699 700L699 0L626 0L626 700M188 0L114 0L114 700L188 700L188 0M633 323L180 323L180 388L633 388L633 323M406-205Q343-205 299.50-172Q256-139 254-84L302-84Q303-121 333-142.50Q363-164 406-164Q450-164 480-142.50Q510-121 510-84L558-84Q556-139 512.50-172Q469-205 406-205Z"  horiz-adv-x="813" vert-adv-y="1000"  />

      
      <glyph glyph-name="uni021E" unicode="&#x021E;" d="M626 700L699 700L699 0L626 0L626 700M188 0L114 0L114 700L188 700L188 0M633 323L180 323L180 388L633 388L633 323Z"  horiz-adv-x="813" vert-adv-y="1000"  />

      
      <glyph glyph-name="uni0124" unicode="&#x0124;" d="M626 700L699 700L699 0L626 0L626 700M188 0L114 0L114 700L188 700L188 0M633 323L180 323L180 388L633 388L633 323Z"  horiz-adv-x="813" vert-adv-y="1000"  />

      
      <glyph glyph-name="uni1E24" unicode="&#x1E24;" d="M626 700L699 700L699 0L626 0L626 700M188 0L114 0L114 700L188 700L188 0M633 323L180 323L180 388L633 388L633 323M406-190Q389-190 376-178Q363-166 363-147Q363-128 376-116Q389-104 406-104Q424-104 436.50-116Q449-128 449-147Q449-166 436.50-178Q424-190 406-190Z"  horiz-adv-x="813" vert-adv-y="1000"  />

      
      <glyph glyph-name="uni49" unicode="&#x49;" d="M114 0L114 700L188 700L188 0L114 0Z"  horiz-adv-x="302" vert-adv-y="1000"  />

      
      <glyph glyph-name="uni0132" unicode="&#x0132;" d="M327-6Q260-6 201 13Q142 32 98 63L128 122Q170 92 221.50 76Q273 60 329 60Q427 60 481.50 119Q536 178 536 299L536 700L610 700L610 302Q610 200 574.50 131.50Q539 63 476 28.50Q413-6 327-6M108 302L108 700L182 700L182 302L108 302Z"  horiz-adv-x="718" vert-adv-y="1000"  />

      
      <glyph glyph-name="unicd" unicode="&#xcd;" d="M114 0L114 700L188 700L188 0L114 0Z"  horiz-adv-x="302" vert-adv-y="1000"  />

      
      <glyph glyph-name="uni012C" unicode="&#x012C;" d="M114 0L114 700L188 700L188 0L114 0Z"  horiz-adv-x="302" vert-adv-y="1000"  />

      
      <glyph glyph-name="unice" unicode="&#xce;" d="M114 0L114 700L188 700L188 0L114 0Z"  horiz-adv-x="302" vert-adv-y="1000"  />

      
      <glyph glyph-name="uni0208" unicode="&#x0208;" d="M114 0L114 700L188 700L188 0L114 0Z"  horiz-adv-x="302" vert-adv-y="1000"  />

      
      <glyph glyph-name="unicf" unicode="&#xcf;" d="M114 0L114 700L188 700L188 0L114 0Z"  horiz-adv-x="302" vert-adv-y="1000"  />

      
      <glyph glyph-name="uni1E2E" unicode="&#x1E2E;" d="M114 0L114 700L188 700L188 0L114 0Z"  horiz-adv-x="302" vert-adv-y="1000"  />

      
      <glyph glyph-name="uni0130" unicode="&#x0130;" d="M114 0L114 700L188 700L188 0L114 0Z"  horiz-adv-x="302" vert-adv-y="1000"  />

      
      <glyph glyph-name="uni1ECA" unicode="&#x1ECA;" d="M114 0L114 700L188 700L188 0L114 0M151-190Q134-190 121-178Q108-166 108-147Q108-128 121-116Q134-104 151-104Q169-104 181.50-116Q194-128 194-147Q194-166 181.50-178Q169-190 151-190Z"  horiz-adv-x="302" vert-adv-y="1000"  />

      
      <glyph glyph-name="unicc" unicode="&#xcc;" d="M114 0L114 700L188 700L188 0L114 0Z"  horiz-adv-x="302" vert-adv-y="1000"  />

      
      <glyph glyph-name="uni1EC8" unicode="&#x1EC8;" d="M114 0L114 700L188 700L188 0L114 0Z"  horiz-adv-x="302" vert-adv-y="1000"  />

      
      <glyph glyph-name="uni020A" unicode="&#x020A;" d="M114 0L114 700L188 700L188 0L114 0Z"  horiz-adv-x="302" vert-adv-y="1000"  />

      
      <glyph glyph-name="uni012A" unicode="&#x012A;" d="M114 0L114 700L188 700L188 0L114 0Z"  horiz-adv-x="302" vert-adv-y="1000"  />

      
      <glyph glyph-name="uni012E" unicode="&#x012E;" d="M114 0L114 700L188 700L188 0L114 0M167-220Q127-220 102.50-195Q78-170 78-129Q78-94 96-53.50Q114-13 162 27L188 0Q150-38 140-68Q130-98 130-122Q130-148 143.50-162.50Q157-177 175-177Q186-177 195-173Q204-169 212-163L226-199Q204-220 167-220Z"  horiz-adv-x="302" vert-adv-y="1000"  />

      
      <glyph glyph-name="uni0128" unicode="&#x0128;" d="M114 0L114 700L188 700L188 0L114 0Z"  horiz-adv-x="302" vert-adv-y="1000"  />

      
      <glyph glyph-name="uni4a" unicode="&#x4a;" d="M189-6Q130-6 78.50 20Q27 46-4 94L39 144Q68 102 106 80Q144 58 190 58Q320 58 320 212L320 636L64 636L64 700L393 700L393 215Q393 104 341.50 49Q290-6 189-6Z"  horiz-adv-x="501" vert-adv-y="1000"  />

      
      <glyph glyph-name="uni0134" unicode="&#x0134;" d="M189-6Q130-6 78.50 20Q27 46-4 94L39 144Q68 102 106 80Q144 58 190 58Q320 58 320 212L320 636L64 636L64 700L393 700L393 215Q393 104 341.50 49Q290-6 189-6Z"  horiz-adv-x="501" vert-adv-y="1000"  />

      
      <glyph glyph-name="uni4b" unicode="&#x4b;" d="M178 174L175 264L599 700L684 700L375 376L333 331L178 174M114 0L114 700L188 700L188 0L114 0M617 0L315 348L365 402L705 0L617 0Z"  horiz-adv-x="711" vert-adv-y="1000"  />

      
      <glyph glyph-name="uni01E8" unicode="&#x01E8;" d="M178 174L175 264L599 700L684 700L375 376L333 331L178 174M114 0L114 700L188 700L188 0L114 0M617 0L315 348L365 402L705 0L617 0Z"  horiz-adv-x="711" vert-adv-y="1000"  />

      
      <glyph glyph-name="uni0136" unicode="&#x0136;" d="M178 174L175 264L599 700L684 700L375 376L333 331L178 174M114 0L114 700L188 700L188 0L114 0M617 0L315 348L365 402L705 0L617 0M338-262L366-154L373-182Q354-182 342-171Q330-160 330-143Q330-126 342-115Q354-104 373-104Q393-104 404.50-115.50Q416-127 416-143Q416-153 413.50-164Q411-175 405-188L377-262L338-262Z"  horiz-adv-x="711" vert-adv-y="1000"  />

      
      <glyph glyph-name="uni4c" unicode="&#x4c;" d="M114 0L114 700L188 700L188 64L580 64L580 0L114 0Z"  horiz-adv-x="589" vert-adv-y="1000"  />

      
      <glyph glyph-name="uni01C7" unicode="&#x01C7;" d="M114 0L114 700L188 700L188 64L580 64L580 0L114 0M778-6Q719-6 667.50 20Q616 46 585 94L628 144Q657 102 695 80Q733 58 779 58Q909 58 909 212L909 636L653 636L653 700L982 700L982 215Q982 104 930.50 49Q879-6 778-6Z"  horiz-adv-x="1090" vert-adv-y="1000"  />

      
      <glyph glyph-name="uni0139" unicode="&#x0139;" d="M114 0L114 700L188 700L188 64L580 64L580 0L114 0Z"  horiz-adv-x="589" vert-adv-y="1000"  />

      
      <glyph glyph-name="uni013D" unicode="&#x013D;" d="M114 0L114 700L188 700L188 64L580 64L580 0L114 0M440 540L440 728L500 728L491 540L440 540Z"  horiz-adv-x="589" vert-adv-y="1000"  />

      
      <glyph glyph-name="uni013B" unicode="&#x013B;" d="M114 0L114 700L188 700L188 64L580 64L580 0L114 0M323-262L351-154L358-182Q339-182 327-171Q315-160 315-143Q315-126 327-115Q339-104 358-104Q378-104 389.50-115.50Q401-127 401-143Q401-153 398.50-164Q396-175 390-188L362-262L323-262Z"  horiz-adv-x="589" vert-adv-y="1000"  />

      
      <glyph glyph-name="uni013F" unicode="&#x013F;" d="M114 0L114 700L188 700L188 64L580 64L580 0L114 0M445 332Q425 332 410.50 346.50Q396 361 396 382Q396 404 410.50 418Q425 432 445 432Q466 432 480 418Q494 404 494 382Q494 361 480 346.50Q466 332 445 332Z"  horiz-adv-x="589" vert-adv-y="1000"  />

      
      <glyph glyph-name="uni1E36" unicode="&#x1E36;" d="M114 0L114 700L188 700L188 64L580 64L580 0L114 0M358-190Q341-190 328-178Q315-166 315-147Q315-128 328-116Q341-104 358-104Q376-104 388.50-116Q401-128 401-147Q401-166 388.50-178Q376-190 358-190Z"  horiz-adv-x="589" vert-adv-y="1000"  />

      
      <glyph glyph-name="uni01C8" unicode="&#x01C8;" d="M114 0L114 700L188 700L188 64L580 64L580 0L114 0Z"  horiz-adv-x="863" vert-adv-y="1000"  />

      
      <glyph glyph-name="uni1E3A" unicode="&#x1E3A;" d="M114 0L114 700L188 700L188 64L580 64L580 0L114 0M204-169L204-122L512-122L512-169L204-169Z"  horiz-adv-x="589" vert-adv-y="1000"  />

      
      <glyph glyph-name="uni0141" unicode="&#x0141;" d="M119 0L119 700L193 700L193 64L585 64L585 0L119 0M52 259L19 301L311 521L345 478L52 259Z"  horiz-adv-x="594" vert-adv-y="1000"  />

      
      <glyph glyph-name="uni4d" unicode="&#x4d;" d="M114 0L114 700L175 700L495 154L463 154L780 700L841 700L841 0L770 0L770 589L787 589L495 89L460 89L166 589L185 589L185 0L114 0Z"  horiz-adv-x="955" vert-adv-y="1000"  />

      
      <glyph glyph-name="uni1E42" unicode="&#x1E42;" d="M114 0L114 700L175 700L495 154L463 154L780 700L841 700L841 0L770 0L770 589L787 589L495 89L460 89L166 589L185 589L185 0L114 0M477-190Q460-190 447-178Q434-166 434-147Q434-128 447-116Q460-104 477-104Q495-104 507.50-116Q520-128 520-147Q520-166 507.50-178Q495-190 477-190Z"  horiz-adv-x="955" vert-adv-y="1000"  />

      
      <glyph glyph-name="uni4e" unicode="&#x4e;" d="M114 0L114 700L175 700L658 92L626 92L626 700L699 700L699 0L638 0L156 608L188 608L188 0L114 0Z"  horiz-adv-x="813" vert-adv-y="1000"  />

      
      <glyph glyph-name="uni01CA" unicode="&#x01CA;" d="M114 0L114 700L175 700L658 92L626 92L626 700L699 700L699 0L638 0L156 608L188 608L188 0L114 0M1002-6Q943-6 891.50 20Q840 46 809 94L852 144Q881 102 919 80Q957 58 1003 58Q1133 58 1133 212L1133 636L877 636L877 700L1206 700L1206 215Q1206 104 1154.50 49Q1103-6 1002-6Z"  horiz-adv-x="1315" vert-adv-y="1000"  />

      
      <glyph glyph-name="uni0143" unicode="&#x0143;" d="M114 0L114 700L175 700L658 92L626 92L626 700L699 700L699 0L638 0L156 608L188 608L188 0L114 0Z"  horiz-adv-x="813" vert-adv-y="1000"  />

      
      <glyph glyph-name="uni0147" unicode="&#x0147;" d="M114 0L114 700L175 700L658 92L626 92L626 700L699 700L699 0L638 0L156 608L188 608L188 0L114 0Z"  horiz-adv-x="813" vert-adv-y="1000"  />

      
      <glyph glyph-name="uni0145" unicode="&#x0145;" d="M114 0L114 700L175 700L658 92L626 92L626 700L699 700L699 0L638 0L156 608L188 608L188 0L114 0M371-262L399-154L406-182Q387-182 375-171Q363-160 363-143Q363-126 375-115Q387-104 406-104Q426-104 437.50-115.50Q449-127 449-143Q449-153 446.50-164Q444-175 438-188L410-262L371-262Z"  horiz-adv-x="813" vert-adv-y="1000"  />

      
      <glyph glyph-name="uni1E44" unicode="&#x1E44;" d="M114 0L114 700L175 700L658 92L626 92L626 700L699 700L699 0L638 0L156 608L188 608L188 0L114 0Z"  horiz-adv-x="813" vert-adv-y="1000"  />

      
      <glyph glyph-name="uni1E46" unicode="&#x1E46;" d="M114 0L114 700L175 700L658 92L626 92L626 700L699 700L699 0L638 0L156 608L188 608L188 0L114 0M406-190Q389-190 376-178Q363-166 363-147Q363-128 376-116Q389-104 406-104Q424-104 436.50-116Q449-128 449-147Q449-166 436.50-178Q424-190 406-190Z"  horiz-adv-x="813" vert-adv-y="1000"  />

      
      <glyph glyph-name="uni014A" unicode="&#x014A;" d="M114 0L114 700L175 700L658 92L638 0L156 608L188 608L188 0L114 0M497-199Q444-199 397-176.50Q350-154 319-113L356-61Q382-96 418-115.50Q454-135 497-135Q626-135 626 20L626 700L699 700L699 28Q699-87 648-143Q597-199 497-199Z"  horiz-adv-x="813" vert-adv-y="1000"  />

      
      <glyph glyph-name="uni01CB" unicode="&#x01CB;" d="M114 0L114 700L175 700L658 92L626 92L626 700L699 700L699 0L638 0L156 608L188 608L188 0L114 0Z"  horiz-adv-x="1087" vert-adv-y="1000"  />

      
      <glyph glyph-name="uni1E48" unicode="&#x1E48;" d="M114 0L114 700L175 700L658 92L626 92L626 700L699 700L699 0L638 0L156 608L188 608L188 0L114 0M252-169L252-122L560-122L560-169L252-169Z"  horiz-adv-x="813" vert-adv-y="1000"  />

      
      <glyph glyph-name="unid1" unicode="&#xd1;" d="M114 0L114 700L175 700L658 92L626 92L626 700L699 700L699 0L638 0L156 608L188 608L188 0L114 0Z"  horiz-adv-x="813" vert-adv-y="1000"  />

      
      <glyph glyph-name="uni4f" unicode="&#x4f;" d="M420-6Q341-6 273.50 20.50Q206 47 156.50 95.50Q107 144 79.50 208.50Q52 273 52 350Q52 427 79.50 491.50Q107 556 156.50 604.50Q206 653 273 679.50Q340 706 420 706Q499 706 566 679.50Q633 653 682.50 605Q732 557 759.50 492Q787 427 787 350Q787 273 759.50 208Q732 143 682.50 95Q633 47 566 20.50Q499-6 420-6M420 60Q483 60 536.50 81.50Q590 103 629.50 142.50Q669 182 691 234.50Q713 287 713 350Q713 413 691 465.50Q669 518 629.50 557.50Q590 597 536.50 618.50Q483 640 420 640Q357 640 303 618.50Q249 597 209.50 557.50Q170 518 147.50 465.50Q125 413 125 350Q125 288 147.50 235Q170 182 209.50 142.50Q249 103 303 81.50Q357 60 420 60Z"  horiz-adv-x="839" vert-adv-y="1000"  />

      
      <glyph glyph-name="unid3" unicode="&#xd3;" d="M420-6Q341-6 273.50 20.50Q206 47 156.50 95.50Q107 144 79.50 208.50Q52 273 52 350Q52 427 79.50 491.50Q107 556 156.50 604.50Q206 653 273 679.50Q340 706 420 706Q499 706 566 679.50Q633 653 682.50 605Q732 557 759.50 492Q787 427 787 350Q787 273 759.50 208Q732 143 682.50 95Q633 47 566 20.50Q499-6 420-6M420 60Q483 60 536.50 81.50Q590 103 629.50 142.50Q669 182 691 234.50Q713 287 713 350Q713 413 691 465.50Q669 518 629.50 557.50Q590 597 536.50 618.50Q483 640 420 640Q357 640 303 618.50Q249 597 209.50 557.50Q170 518 147.50 465.50Q125 413 125 350Q125 288 147.50 235Q170 182 209.50 142.50Q249 103 303 81.50Q357 60 420 60Z"  horiz-adv-x="839" vert-adv-y="1000"  />

      
      <glyph glyph-name="uni014E" unicode="&#x014E;" d="M420-6Q341-6 273.50 20.50Q206 47 156.50 95.50Q107 144 79.50 208.50Q52 273 52 350Q52 427 79.50 491.50Q107 556 156.50 604.50Q206 653 273 679.50Q340 706 420 706Q499 706 566 679.50Q633 653 682.50 605Q732 557 759.50 492Q787 427 787 350Q787 273 759.50 208Q732 143 682.50 95Q633 47 566 20.50Q499-6 420-6M420 60Q483 60 536.50 81.50Q590 103 629.50 142.50Q669 182 691 234.50Q713 287 713 350Q713 413 691 465.50Q669 518 629.50 557.50Q590 597 536.50 618.50Q483 640 420 640Q357 640 303 618.50Q249 597 209.50 557.50Q170 518 147.50 465.50Q125 413 125 350Q125 288 147.50 235Q170 182 209.50 142.50Q249 103 303 81.50Q357 60 420 60Z"  horiz-adv-x="839" vert-adv-y="1000"  />

      
      <glyph glyph-name="unid4" unicode="&#xd4;" d="M420-6Q341-6 273.50 20.50Q206 47 156.50 95.50Q107 144 79.50 208.50Q52 273 52 350Q52 427 79.50 491.50Q107 556 156.50 604.50Q206 653 273 679.50Q340 706 420 706Q499 706 566 679.50Q633 653 682.50 605Q732 557 759.50 492Q787 427 787 350Q787 273 759.50 208Q732 143 682.50 95Q633 47 566 20.50Q499-6 420-6M420 60Q483 60 536.50 81.50Q590 103 629.50 142.50Q669 182 691 234.50Q713 287 713 350Q713 413 691 465.50Q669 518 629.50 557.50Q590 597 536.50 618.50Q483 640 420 640Q357 640 303 618.50Q249 597 209.50 557.50Q170 518 147.50 465.50Q125 413 125 350Q125 288 147.50 235Q170 182 209.50 142.50Q249 103 303 81.50Q357 60 420 60Z"  horiz-adv-x="839" vert-adv-y="1000"  />

      
      <glyph glyph-name="uni1ED0" unicode="&#x1ED0;" d="M420-6Q341-6 273.50 20.50Q206 47 156.50 95.50Q107 144 79.50 208.50Q52 273 52 350Q52 427 79.50 491.50Q107 556 156.50 604.50Q206 653 273 679.50Q340 706 420 706Q499 706 566 679.50Q633 653 682.50 605Q732 557 759.50 492Q787 427 787 350Q787 273 759.50 208Q732 143 682.50 95Q633 47 566 20.50Q499-6 420-6M420 60Q483 60 536.50 81.50Q590 103 629.50 142.50Q669 182 691 234.50Q713 287 713 350Q713 413 691 465.50Q669 518 629.50 557.50Q590 597 536.50 618.50Q483 640 420 640Q357 640 303 618.50Q249 597 209.50 557.50Q170 518 147.50 465.50Q125 413 125 350Q125 288 147.50 235Q170 182 209.50 142.50Q249 103 303 81.50Q357 60 420 60Z"  horiz-adv-x="839" vert-adv-y="1000"  />

      
      <glyph glyph-name="uni1ED8" unicode="&#x1ED8;" d="M420-6Q341-6 273.50 20.50Q206 47 156.50 95.50Q107 144 79.50 208.50Q52 273 52 350Q52 427 79.50 491.50Q107 556 156.50 604.50Q206 653 273 679.50Q340 706 420 706Q499 706 566 679.50Q633 653 682.50 605Q732 557 759.50 492Q787 427 787 350Q787 273 759.50 208Q732 143 682.50 95Q633 47 566 20.50Q499-6 420-6M420 60Q483 60 536.50 81.50Q590 103 629.50 142.50Q669 182 691 234.50Q713 287 713 350Q713 413 691 465.50Q669 518 629.50 557.50Q590 597 536.50 618.50Q483 640 420 640Q357 640 303 618.50Q249 597 209.50 557.50Q170 518 147.50 465.50Q125 413 125 350Q125 288 147.50 235Q170 182 209.50 142.50Q249 103 303 81.50Q357 60 420 60M420-190Q403-190 390-178Q377-166 377-147Q377-128 390-116Q403-104 420-104Q438-104 450.50-116Q463-128 463-147Q463-166 450.50-178Q438-190 420-190Z"  horiz-adv-x="839" vert-adv-y="1000"  />

      
      <glyph glyph-name="uni1ED2" unicode="&#x1ED2;" d="M420-6Q341-6 273.50 20.50Q206 47 156.50 95.50Q107 144 79.50 208.50Q52 273 52 350Q52 427 79.50 491.50Q107 556 156.50 604.50Q206 653 273 679.50Q340 706 420 706Q499 706 566 679.50Q633 653 682.50 605Q732 557 759.50 492Q787 427 787 350Q787 273 759.50 208Q732 143 682.50 95Q633 47 566 20.50Q499-6 420-6M420 60Q483 60 536.50 81.50Q590 103 629.50 142.50Q669 182 691 234.50Q713 287 713 350Q713 413 691 465.50Q669 518 629.50 557.50Q590 597 536.50 618.50Q483 640 420 640Q357 640 303 618.50Q249 597 209.50 557.50Q170 518 147.50 465.50Q125 413 125 350Q125 288 147.50 235Q170 182 209.50 142.50Q249 103 303 81.50Q357 60 420 60Z"  horiz-adv-x="839" vert-adv-y="1000"  />

      
      <glyph glyph-name="uni1ED4" unicode="&#x1ED4;" d="M420-6Q341-6 273.50 20.50Q206 47 156.50 95.50Q107 144 79.50 208.50Q52 273 52 350Q52 427 79.50 491.50Q107 556 156.50 604.50Q206 653 273 679.50Q340 706 420 706Q499 706 566 679.50Q633 653 682.50 605Q732 557 759.50 492Q787 427 787 350Q787 273 759.50 208Q732 143 682.50 95Q633 47 566 20.50Q499-6 420-6M420 60Q483 60 536.50 81.50Q590 103 629.50 142.50Q669 182 691 234.50Q713 287 713 350Q713 413 691 465.50Q669 518 629.50 557.50Q590 597 536.50 618.50Q483 640 420 640Q357 640 303 618.50Q249 597 209.50 557.50Q170 518 147.50 465.50Q125 413 125 350Q125 288 147.50 235Q170 182 209.50 142.50Q249 103 303 81.50Q357 60 420 60Z"  horiz-adv-x="839" vert-adv-y="1000"  />

      
      <glyph glyph-name="uni1ED6" unicode="&#x1ED6;" d="M420-6Q341-6 273.50 20.50Q206 47 156.50 95.50Q107 144 79.50 208.50Q52 273 52 350Q52 427 79.50 491.50Q107 556 156.50 604.50Q206 653 273 679.50Q340 706 420 706Q499 706 566 679.50Q633 653 682.50 605Q732 557 759.50 492Q787 427 787 350Q787 273 759.50 208Q732 143 682.50 95Q633 47 566 20.50Q499-6 420-6M420 60Q483 60 536.50 81.50Q590 103 629.50 142.50Q669 182 691 234.50Q713 287 713 350Q713 413 691 465.50Q669 518 629.50 557.50Q590 597 536.50 618.50Q483 640 420 640Q357 640 303 618.50Q249 597 209.50 557.50Q170 518 147.50 465.50Q125 413 125 350Q125 288 147.50 235Q170 182 209.50 142.50Q249 103 303 81.50Q357 60 420 60Z"  horiz-adv-x="839" vert-adv-y="1000"  />

      
      <glyph glyph-name="uni020C" unicode="&#x020C;" d="M420-6Q341-6 273.50 20.50Q206 47 156.50 95.50Q107 144 79.50 208.50Q52 273 52 350Q52 427 79.50 491.50Q107 556 156.50 604.50Q206 653 273 679.50Q340 706 420 706Q499 706 566 679.50Q633 653 682.50 605Q732 557 759.50 492Q787 427 787 350Q787 273 759.50 208Q732 143 682.50 95Q633 47 566 20.50Q499-6 420-6M420 60Q483 60 536.50 81.50Q590 103 629.50 142.50Q669 182 691 234.50Q713 287 713 350Q713 413 691 465.50Q669 518 629.50 557.50Q590 597 536.50 618.50Q483 640 420 640Q357 640 303 618.50Q249 597 209.50 557.50Q170 518 147.50 465.50Q125 413 125 350Q125 288 147.50 235Q170 182 209.50 142.50Q249 103 303 81.50Q357 60 420 60Z"  horiz-adv-x="839" vert-adv-y="1000"  />

      
      <glyph glyph-name="unid6" unicode="&#xd6;" d="M420-6Q341-6 273.50 20.50Q206 47 156.50 95.50Q107 144 79.50 208.50Q52 273 52 350Q52 427 79.50 491.50Q107 556 156.50 604.50Q206 653 273 679.50Q340 706 420 706Q499 706 566 679.50Q633 653 682.50 605Q732 557 759.50 492Q787 427 787 350Q787 273 759.50 208Q732 143 682.50 95Q633 47 566 20.50Q499-6 420-6M420 60Q483 60 536.50 81.50Q590 103 629.50 142.50Q669 182 691 234.50Q713 287 713 350Q713 413 691 465.50Q669 518 629.50 557.50Q590 597 536.50 618.50Q483 640 420 640Q357 640 303 618.50Q249 597 209.50 557.50Q170 518 147.50 465.50Q125 413 125 350Q125 288 147.50 235Q170 182 209.50 142.50Q249 103 303 81.50Q357 60 420 60Z"  horiz-adv-x="839" vert-adv-y="1000"  />

      
      <glyph glyph-name="uni022A" unicode="&#x022A;" d="M420-6Q341-6 273.50 20.50Q206 47 156.50 95.50Q107 144 79.50 208.50Q52 273 52 350Q52 427 79.50 491.50Q107 556 156.50 604.50Q206 653 273 679.50Q340 706 420 706Q499 706 566 679.50Q633 653 682.50 605Q732 557 759.50 492Q787 427 787 350Q787 273 759.50 208Q732 143 682.50 95Q633 47 566 20.50Q499-6 420-6M420 60Q483 60 536.50 81.50Q590 103 629.50 142.50Q669 182 691 234.50Q713 287 713 350Q713 413 691 465.50Q669 518 629.50 557.50Q590 597 536.50 618.50Q483 640 420 640Q357 640 303 618.50Q249 597 209.50 557.50Q170 518 147.50 465.50Q125 413 125 350Q125 288 147.50 235Q170 182 209.50 142.50Q249 103 303 81.50Q357 60 420 60Z"  horiz-adv-x="839" vert-adv-y="1000"  />

      
      <glyph glyph-name="uni0230" unicode="&#x0230;" d="M420-6Q341-6 273.50 20.50Q206 47 156.50 95.50Q107 144 79.50 208.50Q52 273 52 350Q52 427 79.50 491.50Q107 556 156.50 604.50Q206 653 273 679.50Q340 706 420 706Q499 706 566 679.50Q633 653 682.50 605Q732 557 759.50 492Q787 427 787 350Q787 273 759.50 208Q732 143 682.50 95Q633 47 566 20.50Q499-6 420-6M420 60Q483 60 536.50 81.50Q590 103 629.50 142.50Q669 182 691 234.50Q713 287 713 350Q713 413 691 465.50Q669 518 629.50 557.50Q590 597 536.50 618.50Q483 640 420 640Q357 640 303 618.50Q249 597 209.50 557.50Q170 518 147.50 465.50Q125 413 125 350Q125 288 147.50 235Q170 182 209.50 142.50Q249 103 303 81.50Q357 60 420 60Z"  horiz-adv-x="839" vert-adv-y="1000"  />

      
      <glyph glyph-name="uni1ECC" unicode="&#x1ECC;" d="M420-6Q341-6 273.50 20.50Q206 47 156.50 95.50Q107 144 79.50 208.50Q52 273 52 350Q52 427 79.50 491.50Q107 556 156.50 604.50Q206 653 273 679.50Q340 706 420 706Q499 706 566 679.50Q633 653 682.50 605Q732 557 759.50 492Q787 427 787 350Q787 273 759.50 208Q732 143 682.50 95Q633 47 566 20.50Q499-6 420-6M420 60Q483 60 536.50 81.50Q590 103 629.50 142.50Q669 182 691 234.50Q713 287 713 350Q713 413 691 465.50Q669 518 629.50 557.50Q590 597 536.50 618.50Q483 640 420 640Q357 640 303 618.50Q249 597 209.50 557.50Q170 518 147.50 465.50Q125 413 125 350Q125 288 147.50 235Q170 182 209.50 142.50Q249 103 303 81.50Q357 60 420 60M420-190Q403-190 390-178Q377-166 377-147Q377-128 390-116Q403-104 420-104Q438-104 450.50-116Q463-128 463-147Q463-166 450.50-178Q438-190 420-190Z"  horiz-adv-x="839" vert-adv-y="1000"  />

      
      <glyph glyph-name="unid2" unicode="&#xd2;" d="M420-6Q341-6 273.50 20.50Q206 47 156.50 95.50Q107 144 79.50 208.50Q52 273 52 350Q52 427 79.50 491.50Q107 556 156.50 604.50Q206 653 273 679.50Q340 706 420 706Q499 706 566 679.50Q633 653 682.50 605Q732 557 759.50 492Q787 427 787 350Q787 273 759.50 208Q732 143 682.50 95Q633 47 566 20.50Q499-6 420-6M420 60Q483 60 536.50 81.50Q590 103 629.50 142.50Q669 182 691 234.50Q713 287 713 350Q713 413 691 465.50Q669 518 629.50 557.50Q590 597 536.50 618.50Q483 640 420 640Q357 640 303 618.50Q249 597 209.50 557.50Q170 518 147.50 465.50Q125 413 125 350Q125 288 147.50 235Q170 182 209.50 142.50Q249 103 303 81.50Q357 60 420 60Z"  horiz-adv-x="839" vert-adv-y="1000"  />

      
      <glyph glyph-name="uni1ECE" unicode="&#x1ECE;" d="M420-6Q341-6 273.50 20.50Q206 47 156.50 95.50Q107 144 79.50 208.50Q52 273 52 350Q52 427 79.50 491.50Q107 556 156.50 604.50Q206 653 273 679.50Q340 706 420 706Q499 706 566 679.50Q633 653 682.50 605Q732 557 759.50 492Q787 427 787 350Q787 273 759.50 208Q732 143 682.50 95Q633 47 566 20.50Q499-6 420-6M420 60Q483 60 536.50 81.50Q590 103 629.50 142.50Q669 182 691 234.50Q713 287 713 350Q713 413 691 465.50Q669 518 629.50 557.50Q590 597 536.50 618.50Q483 640 420 640Q357 640 303 618.50Q249 597 209.50 557.50Q170 518 147.50 465.50Q125 413 125 350Q125 288 147.50 235Q170 182 209.50 142.50Q249 103 303 81.50Q357 60 420 60Z"  horiz-adv-x="839" vert-adv-y="1000"  />

      
      <glyph glyph-name="uni01A0" unicode="&#x01A0;" d="M420-6Q341-6 273.50 20.50Q206 47 156.50 95.50Q107 144 79.50 208.50Q52 273 52 350Q52 427 79.50 492Q107 557 157 605Q207 653 274.50 679.50Q342 706 422 706Q484 706 529.50 699Q575 692 620 692Q669 692 694 711Q719 730 719 768Q719 787 713 802.50Q707 818 699 832L746 850Q758 833 765 811Q772 789 772 766Q772 707 732 675.50Q692 644 617 644Q592 644 561.50 647Q531 650 504 654L592 665Q651 638 695 591Q739 544 763 482.50Q787 421 787 350Q787 273 759.50 208Q732 143 682.50 95Q633 47 566 20.50Q499-6 420-6M420 60Q483 60 536.50 82Q590 104 629.50 143Q669 182 691 235Q713 288 713 350Q713 412 691 465Q669 518 629.50 557Q590 596 536.50 618Q483 640 420 640Q357 640 303 618.50Q249 597 209.50 557.50Q170 518 147.50 465.50Q125 413 125 350Q125 288 147.50 235.50Q170 183 209.50 143Q249 103 303 81.50Q357 60 420 60Z"  horiz-adv-x="839" vert-adv-y="1000"  />

      
      <glyph glyph-name="uni1EDA" unicode="&#x1EDA;" d="M420-6Q341-6 273.50 20.50Q206 47 156.50 95.50Q107 144 79.50 208.50Q52 273 52 350Q52 427 79.50 492Q107 557 157 605Q207 653 274.50 679.50Q342 706 422 706Q484 706 529.50 699Q575 692 620 692Q669 692 694 711Q719 730 719 768Q719 787 713 802.50Q707 818 699 832L746 850Q758 833 765 811Q772 789 772 766Q772 707 732 675.50Q692 644 617 644Q592 644 561.50 647Q531 650 504 654L592 665Q651 638 695 591Q739 544 763 482.50Q787 421 787 350Q787 273 759.50 208Q732 143 682.50 95Q633 47 566 20.50Q499-6 420-6M420 60Q483 60 536.50 82Q590 104 629.50 143Q669 182 691 235Q713 288 713 350Q713 412 691 465Q669 518 629.50 557Q590 596 536.50 618Q483 640 420 640Q357 640 303 618.50Q249 597 209.50 557.50Q170 518 147.50 465.50Q125 413 125 350Q125 288 147.50 235.50Q170 183 209.50 143Q249 103 303 81.50Q357 60 420 60Z"  horiz-adv-x="839" vert-adv-y="1000"  />

      
      <glyph glyph-name="uni1EE2" unicode="&#x1EE2;" d="M420-6Q341-6 273.50 20.50Q206 47 156.50 95.50Q107 144 79.50 208.50Q52 273 52 350Q52 427 79.50 492Q107 557 157 605Q207 653 274.50 679.50Q342 706 422 706Q484 706 529.50 699Q575 692 620 692Q669 692 694 711Q719 730 719 768Q719 787 713 802.50Q707 818 699 832L746 850Q758 833 765 811Q772 789 772 766Q772 707 732 675.50Q692 644 617 644Q592 644 561.50 647Q531 650 504 654L592 665Q651 638 695 591Q739 544 763 482.50Q787 421 787 350Q787 273 759.50 208Q732 143 682.50 95Q633 47 566 20.50Q499-6 420-6M420 60Q483 60 536.50 82Q590 104 629.50 143Q669 182 691 235Q713 288 713 350Q713 412 691 465Q669 518 629.50 557Q590 596 536.50 618Q483 640 420 640Q357 640 303 618.50Q249 597 209.50 557.50Q170 518 147.50 465.50Q125 413 125 350Q125 288 147.50 235.50Q170 183 209.50 143Q249 103 303 81.50Q357 60 420 60M420-190Q403-190 390-178Q377-166 377-147Q377-128 390-116Q403-104 420-104Q438-104 450.50-116Q463-128 463-147Q463-166 450.50-178Q438-190 420-190Z"  horiz-adv-x="839" vert-adv-y="1000"  />

      
      <glyph glyph-name="uni1EDC" unicode="&#x1EDC;" d="M420-6Q341-6 273.50 20.50Q206 47 156.50 95.50Q107 144 79.50 208.50Q52 273 52 350Q52 427 79.50 492Q107 557 157 605Q207 653 274.50 679.50Q342 706 422 706Q484 706 529.50 699Q575 692 620 692Q669 692 694 711Q719 730 719 768Q719 787 713 802.50Q707 818 699 832L746 850Q758 833 765 811Q772 789 772 766Q772 707 732 675.50Q692 644 617 644Q592 644 561.50 647Q531 650 504 654L592 665Q651 638 695 591Q739 544 763 482.50Q787 421 787 350Q787 273 759.50 208Q732 143 682.50 95Q633 47 566 20.50Q499-6 420-6M420 60Q483 60 536.50 82Q590 104 629.50 143Q669 182 691 235Q713 288 713 350Q713 412 691 465Q669 518 629.50 557Q590 596 536.50 618Q483 640 420 640Q357 640 303 618.50Q249 597 209.50 557.50Q170 518 147.50 465.50Q125 413 125 350Q125 288 147.50 235.50Q170 183 209.50 143Q249 103 303 81.50Q357 60 420 60Z"  horiz-adv-x="839" vert-adv-y="1000"  />

      
      <glyph glyph-name="uni1EDE" unicode="&#x1EDE;" d="M420-6Q341-6 273.50 20.50Q206 47 156.50 95.50Q107 144 79.50 208.50Q52 273 52 350Q52 427 79.50 492Q107 557 157 605Q207 653 274.50 679.50Q342 706 422 706Q484 706 529.50 699Q575 692 620 692Q669 692 694 711Q719 730 719 768Q719 787 713 802.50Q707 818 699 832L746 850Q758 833 765 811Q772 789 772 766Q772 707 732 675.50Q692 644 617 644Q592 644 561.50 647Q531 650 504 654L592 665Q651 638 695 591Q739 544 763 482.50Q787 421 787 350Q787 273 759.50 208Q732 143 682.50 95Q633 47 566 20.50Q499-6 420-6M420 60Q483 60 536.50 82Q590 104 629.50 143Q669 182 691 235Q713 288 713 350Q713 412 691 465Q669 518 629.50 557Q590 596 536.50 618Q483 640 420 640Q357 640 303 618.50Q249 597 209.50 557.50Q170 518 147.50 465.50Q125 413 125 350Q125 288 147.50 235.50Q170 183 209.50 143Q249 103 303 81.50Q357 60 420 60Z"  horiz-adv-x="839" vert-adv-y="1000"  />

      
      <glyph glyph-name="uni1EE0" unicode="&#x1EE0;" d="M420-6Q341-6 273.50 20.50Q206 47 156.50 95.50Q107 144 79.50 208.50Q52 273 52 350Q52 427 79.50 492Q107 557 157 605Q207 653 274.50 679.50Q342 706 422 706Q484 706 529.50 699Q575 692 620 692Q669 692 694 711Q719 730 719 768Q719 787 713 802.50Q707 818 699 832L746 850Q758 833 765 811Q772 789 772 766Q772 707 732 675.50Q692 644 617 644Q592 644 561.50 647Q531 650 504 654L592 665Q651 638 695 591Q739 544 763 482.50Q787 421 787 350Q787 273 759.50 208Q732 143 682.50 95Q633 47 566 20.50Q499-6 420-6M420 60Q483 60 536.50 82Q590 104 629.50 143Q669 182 691 235Q713 288 713 350Q713 412 691 465Q669 518 629.50 557Q590 596 536.50 618Q483 640 420 640Q357 640 303 618.50Q249 597 209.50 557.50Q170 518 147.50 465.50Q125 413 125 350Q125 288 147.50 235.50Q170 183 209.50 143Q249 103 303 81.50Q357 60 420 60Z"  horiz-adv-x="839" vert-adv-y="1000"  />

      
      <glyph glyph-name="uni0150" unicode="&#x0150;" d="M420-6Q341-6 273.50 20.50Q206 47 156.50 95.50Q107 144 79.50 208.50Q52 273 52 350Q52 427 79.50 491.50Q107 556 156.50 604.50Q206 653 273 679.50Q340 706 420 706Q499 706 566 679.50Q633 653 682.50 605Q732 557 759.50 492Q787 427 787 350Q787 273 759.50 208Q732 143 682.50 95Q633 47 566 20.50Q499-6 420-6M420 60Q483 60 536.50 81.50Q590 103 629.50 142.50Q669 182 691 234.50Q713 287 713 350Q713 413 691 465.50Q669 518 629.50 557.50Q590 597 536.50 618.50Q483 640 420 640Q357 640 303 618.50Q249 597 209.50 557.50Q170 518 147.50 465.50Q125 413 125 350Q125 288 147.50 235Q170 182 209.50 142.50Q249 103 303 81.50Q357 60 420 60Z"  horiz-adv-x="839" vert-adv-y="1000"  />

      
      <glyph glyph-name="uni020E" unicode="&#x020E;" d="M420-6Q341-6 273.50 20.50Q206 47 156.50 95.50Q107 144 79.50 208.50Q52 273 52 350Q52 427 79.50 491.50Q107 556 156.50 604.50Q206 653 273 679.50Q340 706 420 706Q499 706 566 679.50Q633 653 682.50 605Q732 557 759.50 492Q787 427 787 350Q787 273 759.50 208Q732 143 682.50 95Q633 47 566 20.50Q499-6 420-6M420 60Q483 60 536.50 81.50Q590 103 629.50 142.50Q669 182 691 234.50Q713 287 713 350Q713 413 691 465.50Q669 518 629.50 557.50Q590 597 536.50 618.50Q483 640 420 640Q357 640 303 618.50Q249 597 209.50 557.50Q170 518 147.50 465.50Q125 413 125 350Q125 288 147.50 235Q170 182 209.50 142.50Q249 103 303 81.50Q357 60 420 60Z"  horiz-adv-x="839" vert-adv-y="1000"  />

      
      <glyph glyph-name="uni014C" unicode="&#x014C;" d="M420-6Q341-6 273.50 20.50Q206 47 156.50 95.50Q107 144 79.50 208.50Q52 273 52 350Q52 427 79.50 491.50Q107 556 156.50 604.50Q206 653 273 679.50Q340 706 420 706Q499 706 566 679.50Q633 653 682.50 605Q732 557 759.50 492Q787 427 787 350Q787 273 759.50 208Q732 143 682.50 95Q633 47 566 20.50Q499-6 420-6M420 60Q483 60 536.50 81.50Q590 103 629.50 142.50Q669 182 691 234.50Q713 287 713 350Q713 413 691 465.50Q669 518 629.50 557.50Q590 597 536.50 618.50Q483 640 420 640Q357 640 303 618.50Q249 597 209.50 557.50Q170 518 147.50 465.50Q125 413 125 350Q125 288 147.50 235Q170 182 209.50 142.50Q249 103 303 81.50Q357 60 420 60Z"  horiz-adv-x="839" vert-adv-y="1000"  />

      
      <glyph glyph-name="uni1E52" unicode="&#x1E52;" d="M420-6Q341-6 273.50 20.50Q206 47 156.50 95.50Q107 144 79.50 208.50Q52 273 52 350Q52 427 79.50 491.50Q107 556 156.50 604.50Q206 653 273 679.50Q340 706 420 706Q499 706 566 679.50Q633 653 682.50 605Q732 557 759.50 492Q787 427 787 350Q787 273 759.50 208Q732 143 682.50 95Q633 47 566 20.50Q499-6 420-6M420 60Q483 60 536.50 81.50Q590 103 629.50 142.50Q669 182 691 234.50Q713 287 713 350Q713 413 691 465.50Q669 518 629.50 557.50Q590 597 536.50 618.50Q483 640 420 640Q357 640 303 618.50Q249 597 209.50 557.50Q170 518 147.50 465.50Q125 413 125 350Q125 288 147.50 235Q170 182 209.50 142.50Q249 103 303 81.50Q357 60 420 60Z"  horiz-adv-x="839" vert-adv-y="1000"  />

      
      <glyph glyph-name="uni1E50" unicode="&#x1E50;" d="M420-6Q341-6 273.50 20.50Q206 47 156.50 95.50Q107 144 79.50 208.50Q52 273 52 350Q52 427 79.50 491.50Q107 556 156.50 604.50Q206 653 273 679.50Q340 706 420 706Q499 706 566 679.50Q633 653 682.50 605Q732 557 759.50 492Q787 427 787 350Q787 273 759.50 208Q732 143 682.50 95Q633 47 566 20.50Q499-6 420-6M420 60Q483 60 536.50 81.50Q590 103 629.50 142.50Q669 182 691 234.50Q713 287 713 350Q713 413 691 465.50Q669 518 629.50 557.50Q590 597 536.50 618.50Q483 640 420 640Q357 640 303 618.50Q249 597 209.50 557.50Q170 518 147.50 465.50Q125 413 125 350Q125 288 147.50 235Q170 182 209.50 142.50Q249 103 303 81.50Q357 60 420 60Z"  horiz-adv-x="839" vert-adv-y="1000"  />

      
      <glyph glyph-name="uni01EA" unicode="&#x01EA;" d="M424-220Q373-220 343.50-194Q314-168 314-125Q314-101 326-74Q338-47 369.50-21Q401 5 454 27L451-4Q442-5 434.50-5.50Q427-6 420-6Q340-6 273.50 20.50Q207 47 157 95Q107 143 79.50 208Q52 273 52 350Q52 427 79.50 492Q107 557 157 605Q207 653 273.50 679.50Q340 706 420 706Q499 706 566 679.50Q633 653 682.50 605Q732 557 759.50 492Q787 427 787 350Q787 260 750.50 188.50Q714 117 652.50 70.50Q591 24 516 6Q473-4 439-23.50Q405-43 385.50-67.50Q366-92 366-120Q366-148 384.50-162Q403-176 431-176Q447-176 463.50-171Q480-166 492-157L509-196Q491-207 469.50-213.50Q448-220 424-220M420 60Q483 60 536.50 81.50Q590 103 629.50 142.50Q669 182 691 235Q713 288 713 350Q713 413 691 465.50Q669 518 629.50 557.50Q590 597 536.50 618.50Q483 640 420 640Q357 640 303 618.50Q249 597 209.50 557.50Q170 518 147.50 465.50Q125 413 125 350Q125 288 147.50 235Q170 182 209.50 142.50Q249 103 303 81.50Q357 60 420 60Z"  horiz-adv-x="839" vert-adv-y="1000"  />

      
      <glyph glyph-name="unid8" unicode="&#xd8;" d="M420-6Q341-6 273.50 20.50Q206 47 156.50 95.50Q107 144 79.50 208.50Q52 273 52 350Q52 427 79.50 491.50Q107 556 156.50 604.50Q206 653 273 679.50Q340 706 420 706Q499 706 566 679.50Q633 653 682.50 605Q732 557 759.50 492Q787 427 787 350Q787 273 759.50 208Q732 143 682.50 95Q633 47 566 20.50Q499-6 420-6M420 60Q483 60 536.50 81.50Q590 103 629.50 142.50Q669 182 691 234.50Q713 287 713 350Q713 413 691 465.50Q669 518 629.50 557.50Q590 597 536.50 618.50Q483 640 420 640Q357 640 303 618.50Q249 597 209.50 557.50Q170 518 147.50 465.50Q125 413 125 350Q125 288 147.50 235Q170 182 209.50 142.50Q249 103 303 81.50Q357 60 420 60M87-70L694 770L753 770L147-70L87-70Z"  horiz-adv-x="839" vert-adv-y="1000"  />

      
      <glyph glyph-name="uni01FE" unicode="&#x01FE;" d="M420-6Q341-6 273.50 20.50Q206 47 156.50 95.50Q107 144 79.50 208.50Q52 273 52 350Q52 427 79.50 491.50Q107 556 156.50 604.50Q206 653 273 679.50Q340 706 420 706Q499 706 566 679.50Q633 653 682.50 605Q732 557 759.50 492Q787 427 787 350Q787 273 759.50 208Q732 143 682.50 95Q633 47 566 20.50Q499-6 420-6M420 60Q483 60 536.50 81.50Q590 103 629.50 142.50Q669 182 691 234.50Q713 287 713 350Q713 413 691 465.50Q669 518 629.50 557.50Q590 597 536.50 618.50Q483 640 420 640Q357 640 303 618.50Q249 597 209.50 557.50Q170 518 147.50 465.50Q125 413 125 350Q125 288 147.50 235Q170 182 209.50 142.50Q249 103 303 81.50Q357 60 420 60M87-70L694 770L753 770L147-70L87-70Z"  horiz-adv-x="839" vert-adv-y="1000"  />

      
      <glyph glyph-name="unid5" unicode="&#xd5;" d="M420-6Q341-6 273.50 20.50Q206 47 156.50 95.50Q107 144 79.50 208.50Q52 273 52 350Q52 427 79.50 491.50Q107 556 156.50 604.50Q206 653 273 679.50Q340 706 420 706Q499 706 566 679.50Q633 653 682.50 605Q732 557 759.50 492Q787 427 787 350Q787 273 759.50 208Q732 143 682.50 95Q633 47 566 20.50Q499-6 420-6M420 60Q483 60 536.50 81.50Q590 103 629.50 142.50Q669 182 691 234.50Q713 287 713 350Q713 413 691 465.50Q669 518 629.50 557.50Q590 597 536.50 618.50Q483 640 420 640Q357 640 303 618.50Q249 597 209.50 557.50Q170 518 147.50 465.50Q125 413 125 350Q125 288 147.50 235Q170 182 209.50 142.50Q249 103 303 81.50Q357 60 420 60Z"  horiz-adv-x="839" vert-adv-y="1000"  />

      
      <glyph glyph-name="uni1E4C" unicode="&#x1E4C;" d="M420-6Q341-6 273.50 20.50Q206 47 156.50 95.50Q107 144 79.50 208.50Q52 273 52 350Q52 427 79.50 491.50Q107 556 156.50 604.50Q206 653 273 679.50Q340 706 420 706Q499 706 566 679.50Q633 653 682.50 605Q732 557 759.50 492Q787 427 787 350Q787 273 759.50 208Q732 143 682.50 95Q633 47 566 20.50Q499-6 420-6M420 60Q483 60 536.50 81.50Q590 103 629.50 142.50Q669 182 691 234.50Q713 287 713 350Q713 413 691 465.50Q669 518 629.50 557.50Q590 597 536.50 618.50Q483 640 420 640Q357 640 303 618.50Q249 597 209.50 557.50Q170 518 147.50 465.50Q125 413 125 350Q125 288 147.50 235Q170 182 209.50 142.50Q249 103 303 81.50Q357 60 420 60Z"  horiz-adv-x="839" vert-adv-y="1000"  />

      
      <glyph glyph-name="uni1E4E" unicode="&#x1E4E;" d="M420-6Q341-6 273.50 20.50Q206 47 156.50 95.50Q107 144 79.50 208.50Q52 273 52 350Q52 427 79.50 491.50Q107 556 156.50 604.50Q206 653 273 679.50Q340 706 420 706Q499 706 566 679.50Q633 653 682.50 605Q732 557 759.50 492Q787 427 787 350Q787 273 759.50 208Q732 143 682.50 95Q633 47 566 20.50Q499-6 420-6M420 60Q483 60 536.50 81.50Q590 103 629.50 142.50Q669 182 691 234.50Q713 287 713 350Q713 413 691 465.50Q669 518 629.50 557.50Q590 597 536.50 618.50Q483 640 420 640Q357 640 303 618.50Q249 597 209.50 557.50Q170 518 147.50 465.50Q125 413 125 350Q125 288 147.50 235Q170 182 209.50 142.50Q249 103 303 81.50Q357 60 420 60Z"  horiz-adv-x="839" vert-adv-y="1000"  />

      
      <glyph glyph-name="uni022C" unicode="&#x022C;" d="M420-6Q341-6 273.50 20.50Q206 47 156.50 95.50Q107 144 79.50 208.50Q52 273 52 350Q52 427 79.50 491.50Q107 556 156.50 604.50Q206 653 273 679.50Q340 706 420 706Q499 706 566 679.50Q633 653 682.50 605Q732 557 759.50 492Q787 427 787 350Q787 273 759.50 208Q732 143 682.50 95Q633 47 566 20.50Q499-6 420-6M420 60Q483 60 536.50 81.50Q590 103 629.50 142.50Q669 182 691 234.50Q713 287 713 350Q713 413 691 465.50Q669 518 629.50 557.50Q590 597 536.50 618.50Q483 640 420 640Q357 640 303 618.50Q249 597 209.50 557.50Q170 518 147.50 465.50Q125 413 125 350Q125 288 147.50 235Q170 182 209.50 142.50Q249 103 303 81.50Q357 60 420 60Z"  horiz-adv-x="839" vert-adv-y="1000"  />

      
      <glyph glyph-name="uni0152" unicode="&#x0152;" d="M427 0Q315 0 230.50 44.50Q146 89 99 167.50Q52 246 52 349Q52 452 99 531.50Q146 611 230.50 655.50Q315 700 427 700L585 700L585 636L430 636Q338 636 269.50 599.50Q201 563 163 498.50Q125 434 125 349Q125 265 163 201Q201 137 269.50 100.50Q338 64 430 64L585 64L585 0L427 0M632 387L1002 387L1002 324L632 324L632 387M639 64L1061 64L1061 0L566 0L566 700L1046 700L1046 636L639 636L639 64Z"  horiz-adv-x="1121" vert-adv-y="1000"  />

      
      <glyph glyph-name="uni50" unicode="&#x50;" d="M114 0L114 700L376 700Q465 700 529 671.50Q593 643 627.50 589.50Q662 536 662 460Q662 386 627.50 332.50Q593 279 529 250Q465 221 376 221L155 221L188 256L188 0L114 0M188 250L155 286L374 286Q479 286 533.50 331.50Q588 377 588 460Q588 544 533.50 590Q479 636 374 636L155 636L188 671L188 250Z"  horiz-adv-x="718" vert-adv-y="1000"  />

      
      <glyph glyph-name="unide" unicode="&#xde;" d="M169 129L169 194L374 194Q479 194 533.50 240Q588 286 588 370Q588 453 533.50 499Q479 545 374 545L169 545L169 609L376 609Q465 609 529 580Q593 551 627.50 498Q662 445 662 370Q662 295 627.50 241Q593 187 529 158Q465 129 376 129L169 129M114 0L114 700L188 700L188 0L114 0Z"  horiz-adv-x="718" vert-adv-y="1000"  />

      
      <glyph glyph-name="uni51" unicode="&#x51;" d="M420-6Q341-6 273.50 20.50Q206 47 156.50 95.50Q107 144 79.50 208.50Q52 273 52 350Q52 427 79.50 491.50Q107 556 156.50 604.50Q206 653 273 679.50Q340 706 420 706Q499 706 566 679.50Q633 653 682.50 605Q732 557 759.50 492Q787 427 787 350Q787 273 759.50 208Q732 143 682.50 95Q633 47 566 20.50Q499-6 420-6M649-139Q617-139 587-131Q557-123 526.50-105.50Q496-88 464-60Q432-32 394 8L475 28Q506-9 535.50-33Q565-57 593.50-68.50Q622-80 650-80Q728-80 783-16L819-59Q753-139 649-139M420 60Q483 60 536.50 81.50Q590 103 629.50 143Q669 183 691 235.50Q713 288 713 350Q713 413 691 465.50Q669 518 629.50 557.50Q590 597 536.50 618.50Q483 640 420 640Q357 640 303 618.50Q249 597 209.50 557.50Q170 518 147.50 465.50Q125 413 125 350Q125 288 147.50 235.50Q170 183 209.50 143Q249 103 303 81.50Q357 60 420 60Z"  horiz-adv-x="839" vert-adv-y="1000"  />

      
      <glyph glyph-name="uni52" unicode="&#x52;" d="M114 0L114 700L376 700Q465 700 529 671.50Q593 643 627.50 589.50Q662 536 662 460Q662 386 627.50 332.50Q593 279 529 250.50Q465 222 376 222L155 222L188 256L188 0L114 0M592 0L412 254L492 254L673 0L592 0M188 250L155 285L374 285Q479 285 533.50 331Q588 377 588 460Q588 544 533.50 590Q479 636 374 636L155 636L188 671L188 250Z"  horiz-adv-x="723" vert-adv-y="1000"  />

      
      <glyph glyph-name="uni0154" unicode="&#x0154;" d="M114 0L114 700L376 700Q465 700 529 671.50Q593 643 627.50 589.50Q662 536 662 460Q662 386 627.50 332.50Q593 279 529 250.50Q465 222 376 222L155 222L188 256L188 0L114 0M592 0L412 254L492 254L673 0L592 0M188 250L155 285L374 285Q479 285 533.50 331Q588 377 588 460Q588 544 533.50 590Q479 636 374 636L155 636L188 671L188 250Z"  horiz-adv-x="723" vert-adv-y="1000"  />

      
      <glyph glyph-name="uni0158" unicode="&#x0158;" d="M114 0L114 700L376 700Q465 700 529 671.50Q593 643 627.50 589.50Q662 536 662 460Q662 386 627.50 332.50Q593 279 529 250.50Q465 222 376 222L155 222L188 256L188 0L114 0M592 0L412 254L492 254L673 0L592 0M188 250L155 285L374 285Q479 285 533.50 331Q588 377 588 460Q588 544 533.50 590Q479 636 374 636L155 636L188 671L188 250Z"  horiz-adv-x="723" vert-adv-y="1000"  />

      
      <glyph glyph-name="uni0156" unicode="&#x0156;" d="M114 0L114 700L376 700Q465 700 529 671.50Q593 643 627.50 589.50Q662 536 662 460Q662 386 627.50 332.50Q593 279 529 250.50Q465 222 376 222L155 222L188 256L188 0L114 0M592 0L412 254L492 254L673 0L592 0M188 250L155 285L374 285Q479 285 533.50 331Q588 377 588 460Q588 544 533.50 590Q479 636 374 636L155 636L188 671L188 250M334-262L362-154L369-182Q350-182 338-171Q326-160 326-143Q326-126 338-115Q350-104 369-104Q389-104 400.50-115.50Q412-127 412-143Q412-153 409.50-164Q407-175 401-188L373-262L334-262Z"  horiz-adv-x="723" vert-adv-y="1000"  />

      
      <glyph glyph-name="uni0210" unicode="&#x0210;" d="M114 0L114 700L376 700Q465 700 529 671.50Q593 643 627.50 589.50Q662 536 662 460Q662 386 627.50 332.50Q593 279 529 250.50Q465 222 376 222L155 222L188 256L188 0L114 0M592 0L412 254L492 254L673 0L592 0M188 250L155 285L374 285Q479 285 533.50 331Q588 377 588 460Q588 544 533.50 590Q479 636 374 636L155 636L188 671L188 250Z"  horiz-adv-x="723" vert-adv-y="1000"  />

      
      <glyph glyph-name="uni1E5A" unicode="&#x1E5A;" d="M114 0L114 700L376 700Q465 700 529 671.50Q593 643 627.50 589.50Q662 536 662 460Q662 386 627.50 332.50Q593 279 529 250.50Q465 222 376 222L155 222L188 256L188 0L114 0M592 0L412 254L492 254L673 0L592 0M188 250L155 285L374 285Q479 285 533.50 331Q588 377 588 460Q588 544 533.50 590Q479 636 374 636L155 636L188 671L188 250M369-190Q352-190 339-178Q326-166 326-147Q326-128 339-116Q352-104 369-104Q387-104 399.50-116Q412-128 412-147Q412-166 399.50-178Q387-190 369-190Z"  horiz-adv-x="723" vert-adv-y="1000"  />

      
      <glyph glyph-name="uni0212" unicode="&#x0212;" d="M114 0L114 700L376 700Q465 700 529 671.50Q593 643 627.50 589.50Q662 536 662 460Q662 386 627.50 332.50Q593 279 529 250.50Q465 222 376 222L155 222L188 256L188 0L114 0M592 0L412 254L492 254L673 0L592 0M188 250L155 285L374 285Q479 285 533.50 331Q588 377 588 460Q588 544 533.50 590Q479 636 374 636L155 636L188 671L188 250Z"  horiz-adv-x="723" vert-adv-y="1000"  />

      
      <glyph glyph-name="uni1E5E" unicode="&#x1E5E;" d="M114 0L114 700L376 700Q465 700 529 671.50Q593 643 627.50 589.50Q662 536 662 460Q662 386 627.50 332.50Q593 279 529 250.50Q465 222 376 222L155 222L188 256L188 0L114 0M592 0L412 254L492 254L673 0L592 0M188 250L155 285L374 285Q479 285 533.50 331Q588 377 588 460Q588 544 533.50 590Q479 636 374 636L155 636L188 671L188 250M215-169L215-122L523-122L523-169L215-169Z"  horiz-adv-x="723" vert-adv-y="1000"  />

      
      <glyph glyph-name="uni53" unicode="&#x53;" d="M307-6Q229-6 157.50 19.50Q86 45 47 85L76 142Q113 106 175.50 81.50Q238 57 307 57Q373 57 414.50 73.50Q456 90 475.50 118Q495 146 495 180Q495 221 471.50 246Q448 271 410 285.50Q372 300 326 311Q280 322 234 334.50Q188 347 149.50 368Q111 389 87.50 423.50Q64 458 64 514Q64 566 91.50 609.50Q119 653 176 679.50Q233 706 322 706Q381 706 439 689.50Q497 673 539 644L514 585Q469 615 418.50 629Q368 643 321 643Q258 643 217 626Q176 609 156.50 580.50Q137 552 137 516Q137 475 160.50 450Q184 425 222.50 411Q261 397 307 386Q353 375 398.50 362Q444 349 482.50 328.50Q521 308 544.50 274Q568 240 568 185Q568 134 540 90.50Q512 47 454.50 20.50Q397-6 307-6Z"  horiz-adv-x="615" vert-adv-y="1000"  />

      
      <glyph glyph-name="uni015A" unicode="&#x015A;" d="M307-6Q229-6 157.50 19.50Q86 45 47 85L76 142Q113 106 175.50 81.50Q238 57 307 57Q373 57 414.50 73.50Q456 90 475.50 118Q495 146 495 180Q495 221 471.50 246Q448 271 410 285.50Q372 300 326 311Q280 322 234 334.50Q188 347 149.50 368Q111 389 87.50 423.50Q64 458 64 514Q64 566 91.50 609.50Q119 653 176 679.50Q233 706 322 706Q381 706 439 689.50Q497 673 539 644L514 585Q469 615 418.50 629Q368 643 321 643Q258 643 217 626Q176 609 156.50 580.50Q137 552 137 516Q137 475 160.50 450Q184 425 222.50 411Q261 397 307 386Q353 375 398.50 362Q444 349 482.50 328.50Q521 308 544.50 274Q568 240 568 185Q568 134 540 90.50Q512 47 454.50 20.50Q397-6 307-6Z"  horiz-adv-x="615" vert-adv-y="1000"  />

      
      <glyph glyph-name="uni1E64" unicode="&#x1E64;" d="M307-6Q229-6 157.50 19.50Q86 45 47 85L76 142Q113 106 175.50 81.50Q238 57 307 57Q373 57 414.50 73.50Q456 90 475.50 118Q495 146 495 180Q495 221 471.50 246Q448 271 410 285.50Q372 300 326 311Q280 322 234 334.50Q188 347 149.50 368Q111 389 87.50 423.50Q64 458 64 514Q64 566 91.50 609.50Q119 653 176 679.50Q233 706 322 706Q381 706 439 689.50Q497 673 539 644L514 585Q469 615 418.50 629Q368 643 321 643Q258 643 217 626Q176 609 156.50 580.50Q137 552 137 516Q137 475 160.50 450Q184 425 222.50 411Q261 397 307 386Q353 375 398.50 362Q444 349 482.50 328.50Q521 308 544.50 274Q568 240 568 185Q568 134 540 90.50Q512 47 454.50 20.50Q397-6 307-6Z"  horiz-adv-x="615" vert-adv-y="1000"  />

      
      <glyph glyph-name="uniA78B" unicode="&#xA78B;" d="M84 298L84 700L157 700L149 298L84 298Z"  horiz-adv-x="241" vert-adv-y="1000"  />

      
      <glyph glyph-name="uni0160" unicode="&#x0160;" d="M307-6Q229-6 157.50 19.50Q86 45 47 85L76 142Q113 106 175.50 81.50Q238 57 307 57Q373 57 414.50 73.50Q456 90 475.50 118Q495 146 495 180Q495 221 471.50 246Q448 271 410 285.50Q372 300 326 311Q280 322 234 334.50Q188 347 149.50 368Q111 389 87.50 423.50Q64 458 64 514Q64 566 91.50 609.50Q119 653 176 679.50Q233 706 322 706Q381 706 439 689.50Q497 673 539 644L514 585Q469 615 418.50 629Q368 643 321 643Q258 643 217 626Q176 609 156.50 580.50Q137 552 137 516Q137 475 160.50 450Q184 425 222.50 411Q261 397 307 386Q353 375 398.50 362Q444 349 482.50 328.50Q521 308 544.50 274Q568 240 568 185Q568 134 540 90.50Q512 47 454.50 20.50Q397-6 307-6Z"  horiz-adv-x="615" vert-adv-y="1000"  />

      
      <glyph glyph-name="uni1E66" unicode="&#x1E66;" d="M307-6Q229-6 157.50 19.50Q86 45 47 85L76 142Q113 106 175.50 81.50Q238 57 307 57Q373 57 414.50 73.50Q456 90 475.50 118Q495 146 495 180Q495 221 471.50 246Q448 271 410 285.50Q372 300 326 311Q280 322 234 334.50Q188 347 149.50 368Q111 389 87.50 423.50Q64 458 64 514Q64 566 91.50 609.50Q119 653 176 679.50Q233 706 322 706Q381 706 439 689.50Q497 673 539 644L514 585Q469 615 418.50 629Q368 643 321 643Q258 643 217 626Q176 609 156.50 580.50Q137 552 137 516Q137 475 160.50 450Q184 425 222.50 411Q261 397 307 386Q353 375 398.50 362Q444 349 482.50 328.50Q521 308 544.50 274Q568 240 568 185Q568 134 540 90.50Q512 47 454.50 20.50Q397-6 307-6Z"  horiz-adv-x="615" vert-adv-y="1000"  />

      
      <glyph glyph-name="uni015E" unicode="&#x015E;" d="M307-6Q229-6 157.50 19.50Q86 45 47 85L76 142Q113 106 175.50 81.50Q238 57 307 57Q373 57 414.50 73.50Q456 90 475.50 118Q495 146 495 180Q495 221 471.50 246Q448 271 410 285.50Q372 300 326 311Q280 322 234 334.50Q188 347 149.50 368Q111 389 87.50 423.50Q64 458 64 514Q64 566 91.50 609.50Q119 653 176 679.50Q233 706 322 706Q381 706 439 689.50Q497 673 539 644L514 585Q469 615 418.50 629Q368 643 321 643Q258 643 217 626Q176 609 156.50 580.50Q137 552 137 516Q137 475 160.50 450Q184 425 222.50 411Q261 397 307 386Q353 375 398.50 362Q444 349 482.50 328.50Q521 308 544.50 274Q568 240 568 185Q568 134 540 90.50Q512 47 454.50 20.50Q397-6 307-6M299-220Q274-220 253.50-214Q233-208 215-197L232-159Q247-168 263.50-173Q280-178 298-178Q328-178 344-165.50Q360-153 360-131Q360-111 344.50-98Q329-85 298-85L275-85L299 6L342 6L327-52Q368-55 390-77.50Q412-100 412-133Q412-173 380.50-196.50Q349-220 299-220Z"  horiz-adv-x="615" vert-adv-y="1000"  />

      
      <glyph glyph-name="uni015C" unicode="&#x015C;" d="M307-6Q229-6 157.50 19.50Q86 45 47 85L76 142Q113 106 175.50 81.50Q238 57 307 57Q373 57 414.50 73.50Q456 90 475.50 118Q495 146 495 180Q495 221 471.50 246Q448 271 410 285.50Q372 300 326 311Q280 322 234 334.50Q188 347 149.50 368Q111 389 87.50 423.50Q64 458 64 514Q64 566 91.50 609.50Q119 653 176 679.50Q233 706 322 706Q381 706 439 689.50Q497 673 539 644L514 585Q469 615 418.50 629Q368 643 321 643Q258 643 217 626Q176 609 156.50 580.50Q137 552 137 516Q137 475 160.50 450Q184 425 222.50 411Q261 397 307 386Q353 375 398.50 362Q444 349 482.50 328.50Q521 308 544.50 274Q568 240 568 185Q568 134 540 90.50Q512 47 454.50 20.50Q397-6 307-6Z"  horiz-adv-x="615" vert-adv-y="1000"  />

      
      <glyph glyph-name="uni0218" unicode="&#x0218;" d="M307-6Q229-6 157.50 19.50Q86 45 47 85L76 142Q113 106 175.50 81.50Q238 57 307 57Q373 57 414.50 73.50Q456 90 475.50 118Q495 146 495 180Q495 221 471.50 246Q448 271 410 285.50Q372 300 326 311Q280 322 234 334.50Q188 347 149.50 368Q111 389 87.50 423.50Q64 458 64 514Q64 566 91.50 609.50Q119 653 176 679.50Q233 706 322 706Q381 706 439 689.50Q497 673 539 644L514 585Q469 615 418.50 629Q368 643 321 643Q258 643 217 626Q176 609 156.50 580.50Q137 552 137 516Q137 475 160.50 450Q184 425 222.50 411Q261 397 307 386Q353 375 398.50 362Q444 349 482.50 328.50Q521 308 544.50 274Q568 240 568 185Q568 134 540 90.50Q512 47 454.50 20.50Q397-6 307-6M286-262L314-154L321-182Q302-182 290-171Q278-160 278-143Q278-126 290-115Q302-104 321-104Q341-104 352.50-115.50Q364-127 364-143Q364-153 361.50-164Q359-175 353-188L325-262L286-262Z"  horiz-adv-x="615" vert-adv-y="1000"  />

      
      <glyph glyph-name="uni1E60" unicode="&#x1E60;" d="M307-6Q229-6 157.50 19.50Q86 45 47 85L76 142Q113 106 175.50 81.50Q238 57 307 57Q373 57 414.50 73.50Q456 90 475.50 118Q495 146 495 180Q495 221 471.50 246Q448 271 410 285.50Q372 300 326 311Q280 322 234 334.50Q188 347 149.50 368Q111 389 87.50 423.50Q64 458 64 514Q64 566 91.50 609.50Q119 653 176 679.50Q233 706 322 706Q381 706 439 689.50Q497 673 539 644L514 585Q469 615 418.50 629Q368 643 321 643Q258 643 217 626Q176 609 156.50 580.50Q137 552 137 516Q137 475 160.50 450Q184 425 222.50 411Q261 397 307 386Q353 375 398.50 362Q444 349 482.50 328.50Q521 308 544.50 274Q568 240 568 185Q568 134 540 90.50Q512 47 454.50 20.50Q397-6 307-6Z"  horiz-adv-x="615" vert-adv-y="1000"  />

      
      <glyph glyph-name="uni1E62" unicode="&#x1E62;" d="M307-6Q229-6 157.50 19.50Q86 45 47 85L76 142Q113 106 175.50 81.50Q238 57 307 57Q373 57 414.50 73.50Q456 90 475.50 118Q495 146 495 180Q495 221 471.50 246Q448 271 410 285.50Q372 300 326 311Q280 322 234 334.50Q188 347 149.50 368Q111 389 87.50 423.50Q64 458 64 514Q64 566 91.50 609.50Q119 653 176 679.50Q233 706 322 706Q381 706 439 689.50Q497 673 539 644L514 585Q469 615 418.50 629Q368 643 321 643Q258 643 217 626Q176 609 156.50 580.50Q137 552 137 516Q137 475 160.50 450Q184 425 222.50 411Q261 397 307 386Q353 375 398.50 362Q444 349 482.50 328.50Q521 308 544.50 274Q568 240 568 185Q568 134 540 90.50Q512 47 454.50 20.50Q397-6 307-6M321-190Q304-190 291-178Q278-166 278-147Q278-128 291-116Q304-104 321-104Q339-104 351.50-116Q364-128 364-147Q364-166 351.50-178Q339-190 321-190Z"  horiz-adv-x="615" vert-adv-y="1000"  />

      
      <glyph glyph-name="uni1E68" unicode="&#x1E68;" d="M307-6Q229-6 157.50 19.50Q86 45 47 85L76 142Q113 106 175.50 81.50Q238 57 307 57Q373 57 414.50 73.50Q456 90 475.50 118Q495 146 495 180Q495 221 471.50 246Q448 271 410 285.50Q372 300 326 311Q280 322 234 334.50Q188 347 149.50 368Q111 389 87.50 423.50Q64 458 64 514Q64 566 91.50 609.50Q119 653 176 679.50Q233 706 322 706Q381 706 439 689.50Q497 673 539 644L514 585Q469 615 418.50 629Q368 643 321 643Q258 643 217 626Q176 609 156.50 580.50Q137 552 137 516Q137 475 160.50 450Q184 425 222.50 411Q261 397 307 386Q353 375 398.50 362Q444 349 482.50 328.50Q521 308 544.50 274Q568 240 568 185Q568 134 540 90.50Q512 47 454.50 20.50Q397-6 307-6M321-190Q304-190 291-178Q278-166 278-147Q278-128 291-116Q304-104 321-104Q339-104 351.50-116Q364-128 364-147Q364-166 351.50-178Q339-190 321-190Z"  horiz-adv-x="615" vert-adv-y="1000"  />

      
      <glyph glyph-name="uni1E9E" unicode="&#x1E9E;" d="M460-6Q422-6 388.50 0Q355 6 324 20L337 82Q363 70 393.50 63.50Q424 57 459 57Q536 57 581 93.50Q626 130 626 201Q626 273 580 309Q534 345 456 345Q434 345 411.50 342Q389 339 371 333L356 371L596 632L603 582Q564 614 515 628.50Q466 643 412 643Q299 643 240.50 582.50Q182 522 182 408L182 0L108 0L108 411Q108 503 143.50 569Q179 635 246 670.50Q313 706 408 706Q450 706 491.50 698.50Q533 691 570 676Q607 661 636 637L636 588L417 351L389 393Q406 399 426 401Q446 403 467 403Q535 403 587.50 379.50Q640 356 670.50 310.50Q701 265 701 198Q701 132 671 86.50Q641 41 586.50 17.50Q532-6 460-6Z"  horiz-adv-x="756" vert-adv-y="1000"  />

      
      <glyph glyph-name="uni018F" unicode="&#x018F;" d="M409-6Q332-6 266.50 20.50Q201 47 153 95.50Q105 144 78.50 209.50Q52 275 52 353L52 375L701 375L701 312L100 312L125 350Q125 286 146 232.50Q167 179 204.50 140Q242 101 294 79.50Q346 58 409 58Q469 58 520.50 79Q572 100 610.50 139Q649 178 670 231Q691 284 691 346L691 353Q691 415 669 467Q647 519 607.50 558Q568 597 515 618.50Q462 640 401 640Q359 640 319 631.50Q279 623 243.50 605Q208 587 177 559L133 610Q166 641 207.50 662.50Q249 684 298.50 695Q348 706 401 706Q480 706 546.50 679.50Q613 653 662 605Q711 557 738 492Q765 427 765 351Q765 275 738 210Q711 145 662.50 96.50Q614 48 549 21Q484-6 409-6Z"  horiz-adv-x="817" vert-adv-y="1000"  />

      
      <glyph glyph-name="uni54" unicode="&#x54;" d="M250 0L250 636L4 636L4 700L570 700L570 636L324 636L324 0L250 0Z"  horiz-adv-x="574" vert-adv-y="1000"  />

      
      <glyph glyph-name="uni0166" unicode="&#x0166;" d="M250 0L250 636L4 636L4 700L570 700L570 636L324 636L324 0L250 0M93 315L93 374L481 374L481 315L93 315Z"  horiz-adv-x="574" vert-adv-y="1000"  />

      
      <glyph glyph-name="uni0164" unicode="&#x0164;" d="M250 0L250 636L4 636L4 700L570 700L570 636L324 636L324 0L250 0Z"  horiz-adv-x="574" vert-adv-y="1000"  />

      
      <glyph glyph-name="uni0162" unicode="&#x0162;" d="M250 0L250 636L4 636L4 700L570 700L570 636L324 636L324 0L250 0M265-220Q240-220 219.50-214Q199-208 181-197L198-159Q213-168 229.50-173Q246-178 264-178Q294-178 310-165.50Q326-153 326-131Q326-111 310.50-98Q295-85 264-85L241-85L265 6L308 6L293-52Q334-55 356-77.50Q378-100 378-133Q378-173 346.50-196.50Q315-220 265-220Z"  horiz-adv-x="574" vert-adv-y="1000"  />

      
      <glyph glyph-name="uni021A" unicode="&#x021A;" d="M250 0L250 636L4 636L4 700L570 700L570 636L324 636L324 0L250 0M252-262L280-154L287-182Q268-182 256-171Q244-160 244-143Q244-126 256-115Q268-104 287-104Q307-104 318.50-115.50Q330-127 330-143Q330-153 327.50-164Q325-175 319-188L291-262L252-262Z"  horiz-adv-x="574" vert-adv-y="1000"  />

      
      <glyph glyph-name="uni1E6C" unicode="&#x1E6C;" d="M250 0L250 636L4 636L4 700L570 700L570 636L324 636L324 0L250 0M287-190Q270-190 257-178Q244-166 244-147Q244-128 257-116Q270-104 287-104Q305-104 317.50-116Q330-128 330-147Q330-166 317.50-178Q305-190 287-190Z"  horiz-adv-x="574" vert-adv-y="1000"  />

      
      <glyph glyph-name="uni1E6E" unicode="&#x1E6E;" d="M250 0L250 636L4 636L4 700L570 700L570 636L324 636L324 0L250 0M133-169L133-122L441-122L441-169L133-169Z"  horiz-adv-x="574" vert-adv-y="1000"  />

      
      <glyph glyph-name="uni55" unicode="&#x55;" d="M396-6Q262-6 185 71Q108 148 108 299L108 700L182 700L182 302Q182 178 238 119Q294 60 396 60Q499 60 555 119Q611 178 611 302L611 700L683 700L683 299Q683 148 606.50 71Q530-6 396-6Z"  horiz-adv-x="792" vert-adv-y="1000"  />

      
      <glyph glyph-name="unida" unicode="&#xda;" d="M396-6Q262-6 185 71Q108 148 108 299L108 700L182 700L182 302Q182 178 238 119Q294 60 396 60Q499 60 555 119Q611 178 611 302L611 700L683 700L683 299Q683 148 606.50 71Q530-6 396-6Z"  horiz-adv-x="792" vert-adv-y="1000"  />

      
      <glyph glyph-name="uni016C" unicode="&#x016C;" d="M396-6Q262-6 185 71Q108 148 108 299L108 700L182 700L182 302Q182 178 238 119Q294 60 396 60Q499 60 555 119Q611 178 611 302L611 700L683 700L683 299Q683 148 606.50 71Q530-6 396-6Z"  horiz-adv-x="792" vert-adv-y="1000"  />

      
      <glyph glyph-name="uni01D3" unicode="&#x01D3;" d="M396-6Q262-6 185 71Q108 148 108 299L108 700L182 700L182 302Q182 178 238 119Q294 60 396 60Q499 60 555 119Q611 178 611 302L611 700L683 700L683 299Q683 148 606.50 71Q530-6 396-6Z"  horiz-adv-x="792" vert-adv-y="1000"  />

      
      <glyph glyph-name="unidb" unicode="&#xdb;" d="M396-6Q262-6 185 71Q108 148 108 299L108 700L182 700L182 302Q182 178 238 119Q294 60 396 60Q499 60 555 119Q611 178 611 302L611 700L683 700L683 299Q683 148 606.50 71Q530-6 396-6Z"  horiz-adv-x="792" vert-adv-y="1000"  />

      
      <glyph glyph-name="uni0214" unicode="&#x0214;" d="M396-6Q262-6 185 71Q108 148 108 299L108 700L182 700L182 302Q182 178 238 119Q294 60 396 60Q499 60 555 119Q611 178 611 302L611 700L683 700L683 299Q683 148 606.50 71Q530-6 396-6Z"  horiz-adv-x="792" vert-adv-y="1000"  />

      
      <glyph glyph-name="unidc" unicode="&#xdc;" d="M396-6Q262-6 185 71Q108 148 108 299L108 700L182 700L182 302Q182 178 238 119Q294 60 396 60Q499 60 555 119Q611 178 611 302L611 700L683 700L683 299Q683 148 606.50 71Q530-6 396-6Z"  horiz-adv-x="792" vert-adv-y="1000"  />

      
      <glyph glyph-name="uni1EE4" unicode="&#x1EE4;" d="M396-6Q262-6 185 71Q108 148 108 299L108 700L182 700L182 302Q182 178 238 119Q294 60 396 60Q499 60 555 119Q611 178 611 302L611 700L683 700L683 299Q683 148 606.50 71Q530-6 396-6M396-190Q379-190 366-178Q353-166 353-147Q353-128 366-116Q379-104 396-104Q414-104 426.50-116Q439-128 439-147Q439-166 426.50-178Q414-190 396-190Z"  horiz-adv-x="792" vert-adv-y="1000"  />

      
      <glyph glyph-name="unid9" unicode="&#xd9;" d="M396-6Q262-6 185 71Q108 148 108 299L108 700L182 700L182 302Q182 178 238 119Q294 60 396 60Q499 60 555 119Q611 178 611 302L611 700L683 700L683 299Q683 148 606.50 71Q530-6 396-6Z"  horiz-adv-x="792" vert-adv-y="1000"  />

      
      <glyph glyph-name="uni1EE6" unicode="&#x1EE6;" d="M396-6Q262-6 185 71Q108 148 108 299L108 700L182 700L182 302Q182 178 238 119Q294 60 396 60Q499 60 555 119Q611 178 611 302L611 700L683 700L683 299Q683 148 606.50 71Q530-6 396-6Z"  horiz-adv-x="792" vert-adv-y="1000"  />

      
      <glyph glyph-name="uni01AF" unicode="&#x01AF;" d="M396-6Q262-6 185 71Q108 148 108 299L108 700L182 700L182 302Q182 178 238 119Q294 60 396 60Q499 60 555 119Q611 178 611 302L611 700L683 700L683 299Q683 148 606.50 71Q530-6 396-6M649 646L649 700L664 700Q699 700 714.50 720Q730 740 730 768Q730 787 724.50 803Q719 819 710 832L757 850Q769 833 776 811.50Q783 790 783 766Q783 713 753 679.50Q723 646 664 646L649 646Z"  horiz-adv-x="797" vert-adv-y="1000"  />

      
      <glyph glyph-name="uni1EE8" unicode="&#x1EE8;" d="M396-6Q262-6 185 71Q108 148 108 299L108 700L182 700L182 302Q182 178 238 119Q294 60 396 60Q499 60 555 119Q611 178 611 302L611 700L683 700L683 299Q683 148 606.50 71Q530-6 396-6M649 646L649 700L664 700Q699 700 714.50 720Q730 740 730 768Q730 787 724.50 803Q719 819 710 832L757 850Q769 833 776 811.50Q783 790 783 766Q783 713 753 679.50Q723 646 664 646L649 646Z"  horiz-adv-x="797" vert-adv-y="1000"  />

      
      <glyph glyph-name="uni1EF0" unicode="&#x1EF0;" d="M396-6Q262-6 185 71Q108 148 108 299L108 700L182 700L182 302Q182 178 238 119Q294 60 396 60Q499 60 555 119Q611 178 611 302L611 700L683 700L683 299Q683 148 606.50 71Q530-6 396-6M649 646L649 700L664 700Q699 700 714.50 720Q730 740 730 768Q730 787 724.50 803Q719 819 710 832L757 850Q769 833 776 811.50Q783 790 783 766Q783 713 753 679.50Q723 646 664 646L649 646M396-190Q379-190 366-178Q353-166 353-147Q353-128 366-116Q379-104 396-104Q414-104 426.50-116Q439-128 439-147Q439-166 426.50-178Q414-190 396-190Z"  horiz-adv-x="797" vert-adv-y="1000"  />

      
      <glyph glyph-name="uni1EEA" unicode="&#x1EEA;" d="M396-6Q262-6 185 71Q108 148 108 299L108 700L182 700L182 302Q182 178 238 119Q294 60 396 60Q499 60 555 119Q611 178 611 302L611 700L683 700L683 299Q683 148 606.50 71Q530-6 396-6M649 646L649 700L664 700Q699 700 714.50 720Q730 740 730 768Q730 787 724.50 803Q719 819 710 832L757 850Q769 833 776 811.50Q783 790 783 766Q783 713 753 679.50Q723 646 664 646L649 646Z"  horiz-adv-x="797" vert-adv-y="1000"  />

      
      <glyph glyph-name="uni1EEC" unicode="&#x1EEC;" d="M396-6Q262-6 185 71Q108 148 108 299L108 700L182 700L182 302Q182 178 238 119Q294 60 396 60Q499 60 555 119Q611 178 611 302L611 700L683 700L683 299Q683 148 606.50 71Q530-6 396-6M649 646L649 700L664 700Q699 700 714.50 720Q730 740 730 768Q730 787 724.50 803Q719 819 710 832L757 850Q769 833 776 811.50Q783 790 783 766Q783 713 753 679.50Q723 646 664 646L649 646Z"  horiz-adv-x="797" vert-adv-y="1000"  />

      
      <glyph glyph-name="uni1EEE" unicode="&#x1EEE;" d="M396-6Q262-6 185 71Q108 148 108 299L108 700L182 700L182 302Q182 178 238 119Q294 60 396 60Q499 60 555 119Q611 178 611 302L611 700L683 700L683 299Q683 148 606.50 71Q530-6 396-6M649 646L649 700L664 700Q699 700 714.50 720Q730 740 730 768Q730 787 724.50 803Q719 819 710 832L757 850Q769 833 776 811.50Q783 790 783 766Q783 713 753 679.50Q723 646 664 646L649 646Z"  horiz-adv-x="797" vert-adv-y="1000"  />

      
      <glyph glyph-name="uni0170" unicode="&#x0170;" d="M396-6Q262-6 185 71Q108 148 108 299L108 700L182 700L182 302Q182 178 238 119Q294 60 396 60Q499 60 555 119Q611 178 611 302L611 700L683 700L683 299Q683 148 606.50 71Q530-6 396-6Z"  horiz-adv-x="792" vert-adv-y="1000"  />

      
      <glyph glyph-name="uni0216" unicode="&#x0216;" d="M396-6Q262-6 185 71Q108 148 108 299L108 700L182 700L182 302Q182 178 238 119Q294 60 396 60Q499 60 555 119Q611 178 611 302L611 700L683 700L683 299Q683 148 606.50 71Q530-6 396-6Z"  horiz-adv-x="792" vert-adv-y="1000"  />

      
      <glyph glyph-name="uni016A" unicode="&#x016A;" d="M396-6Q262-6 185 71Q108 148 108 299L108 700L182 700L182 302Q182 178 238 119Q294 60 396 60Q499 60 555 119Q611 178 611 302L611 700L683 700L683 299Q683 148 606.50 71Q530-6 396-6Z"  horiz-adv-x="792" vert-adv-y="1000"  />

      
      <glyph glyph-name="uni1E7A" unicode="&#x1E7A;" d="M396-6Q262-6 185 71Q108 148 108 299L108 700L182 700L182 302Q182 178 238 119Q294 60 396 60Q499 60 555 119Q611 178 611 302L611 700L683 700L683 299Q683 148 606.50 71Q530-6 396-6Z"  horiz-adv-x="792" vert-adv-y="1000"  />

      
      <glyph glyph-name="uni0172" unicode="&#x0172;" d="M611 700L683 700L683 299Q683 177 635 107Q587 37 504 8Q442-13 410-36Q378-59 367-80.50Q356-102 356-120Q356-148 374.50-162Q393-176 421-176Q437-176 453.50-171Q470-166 482-157L498-196Q481-207 459-213.50Q437-220 413-220Q363-220 333-194Q303-168 303-125Q303-101 315.50-74.50Q328-48 358.50-22Q389 4 444 26L437-4Q427-5 416.50-5.50Q406-6 396-6Q262-6 185 71Q108 148 108 299L108 700L182 700L182 302Q182 178 238 119Q294 60 396 60Q499 60 555 119Q611 178 611 302L611 700Z"  horiz-adv-x="792" vert-adv-y="1000"  />

      
      <glyph glyph-name="uni016E" unicode="&#x016E;" d="M396-6Q262-6 185 71Q108 148 108 299L108 700L182 700L182 302Q182 178 238 119Q294 60 396 60Q499 60 555 119Q611 178 611 302L611 700L683 700L683 299Q683 148 606.50 71Q530-6 396-6M395 770Q365 770 341.50 784Q318 798 304.50 821Q291 844 291 872Q291 900 305 924Q319 948 342.50 962.50Q366 977 395 977Q425 977 448.50 962.50Q472 948 486 924Q500 900 500 872Q500 844 486 821Q472 798 448.50 784Q425 770 395 770M395 805Q425 805 444 824.50Q463 844 463 872Q463 901 444 921.50Q425 942 395 942Q366 942 347 922Q328 902 328 872Q328 843 346.50 824Q365 805 395 805Z"  horiz-adv-x="792" vert-adv-y="1000"  />

      
      <glyph glyph-name="uni0168" unicode="&#x0168;" d="M396-6Q262-6 185 71Q108 148 108 299L108 700L182 700L182 302Q182 178 238 119Q294 60 396 60Q499 60 555 119Q611 178 611 302L611 700L683 700L683 299Q683 148 606.50 71Q530-6 396-6Z"  horiz-adv-x="792" vert-adv-y="1000"  />

      
      <glyph glyph-name="uni1E78" unicode="&#x1E78;" d="M396-6Q262-6 185 71Q108 148 108 299L108 700L182 700L182 302Q182 178 238 119Q294 60 396 60Q499 60 555 119Q611 178 611 302L611 700L683 700L683 299Q683 148 606.50 71Q530-6 396-6Z"  horiz-adv-x="792" vert-adv-y="1000"  />

      
      <glyph glyph-name="uni56" unicode="&#x56;" d="M313 0L3 700L83 700L373 41L329 41L621 700L696 700L386 0L313 0Z"  horiz-adv-x="698" vert-adv-y="1000"  />

      
      <glyph glyph-name="uni57" unicode="&#x57;" d="M273 0L37 700L113 700L334 41L296 41L524 700L592 700L817 41L781 41L1004 700L1075 700L839 0L761 0L546 625L566 625L350 0L273 0Z"  horiz-adv-x="1111" vert-adv-y="1000"  />

      
      <glyph glyph-name="uni1E82" unicode="&#x1E82;" d="M273 0L37 700L113 700L334 41L296 41L524 700L592 700L817 41L781 41L1004 700L1075 700L839 0L761 0L546 625L566 625L350 0L273 0Z"  horiz-adv-x="1111" vert-adv-y="1000"  />

      
      <glyph glyph-name="uni0174" unicode="&#x0174;" d="M273 0L37 700L113 700L334 41L296 41L524 700L592 700L817 41L781 41L1004 700L1075 700L839 0L761 0L546 625L566 625L350 0L273 0Z"  horiz-adv-x="1111" vert-adv-y="1000"  />

      
      <glyph glyph-name="uni1E84" unicode="&#x1E84;" d="M273 0L37 700L113 700L334 41L296 41L524 700L592 700L817 41L781 41L1004 700L1075 700L839 0L761 0L546 625L566 625L350 0L273 0Z"  horiz-adv-x="1111" vert-adv-y="1000"  />

      
      <glyph glyph-name="uni1E80" unicode="&#x1E80;" d="M273 0L37 700L113 700L334 41L296 41L524 700L592 700L817 41L781 41L1004 700L1075 700L839 0L761 0L546 625L566 625L350 0L273 0Z"  horiz-adv-x="1111" vert-adv-y="1000"  />

      
      <glyph glyph-name="uni58" unicode="&#x58;" d="M17 0L304 388L304 331L34 700L119 700L346 392L313 391L540 700L620 700L353 336L353 388L639 0L553 0L311 329L342 329L102 0L17 0Z"  horiz-adv-x="656" vert-adv-y="1000"  />

      
      <glyph glyph-name="uni59" unicode="&#x59;" d="M281 0L281 260L298 214L1 700L80 700L341 273L299 273L560 700L634 700L337 214L354 260L354 0L281 0Z"  horiz-adv-x="635" vert-adv-y="1000"  />

      
      <glyph glyph-name="unidd" unicode="&#xdd;" d="M281 0L281 260L298 214L1 700L80 700L341 273L299 273L560 700L634 700L337 214L354 260L354 0L281 0Z"  horiz-adv-x="635" vert-adv-y="1000"  />

      
      <glyph glyph-name="uni0176" unicode="&#x0176;" d="M281 0L281 260L298 214L1 700L80 700L341 273L299 273L560 700L634 700L337 214L354 260L354 0L281 0Z"  horiz-adv-x="635" vert-adv-y="1000"  />

      
      <glyph glyph-name="uni0178" unicode="&#x0178;" d="M281 0L281 260L298 214L1 700L80 700L341 273L299 273L560 700L634 700L337 214L354 260L354 0L281 0Z"  horiz-adv-x="635" vert-adv-y="1000"  />

      
      <glyph glyph-name="uni1E8E" unicode="&#x1E8E;" d="M281 0L281 260L298 214L1 700L80 700L341 273L299 273L560 700L634 700L337 214L354 260L354 0L281 0Z"  horiz-adv-x="635" vert-adv-y="1000"  />

      
      <glyph glyph-name="uni1EF4" unicode="&#x1EF4;" d="M281 0L281 260L298 214L1 700L80 700L341 273L299 273L560 700L634 700L337 214L354 260L354 0L281 0M317-190Q300-190 287-178Q274-166 274-147Q274-128 287-116Q300-104 317-104Q335-104 347.50-116Q360-128 360-147Q360-166 347.50-178Q335-190 317-190Z"  horiz-adv-x="635" vert-adv-y="1000"  />

      
      <glyph glyph-name="uni1EF2" unicode="&#x1EF2;" d="M281 0L281 260L298 214L1 700L80 700L341 273L299 273L560 700L634 700L337 214L354 260L354 0L281 0Z"  horiz-adv-x="635" vert-adv-y="1000"  />

      
      <glyph glyph-name="uni1EF6" unicode="&#x1EF6;" d="M281 0L281 260L298 214L1 700L80 700L341 273L299 273L560 700L634 700L337 214L354 260L354 0L281 0Z"  horiz-adv-x="635" vert-adv-y="1000"  />

      
      <glyph glyph-name="uni0232" unicode="&#x0232;" d="M281 0L281 260L298 214L1 700L80 700L341 273L299 273L560 700L634 700L337 214L354 260L354 0L281 0Z"  horiz-adv-x="635" vert-adv-y="1000"  />

      
      <glyph glyph-name="uni1EF8" unicode="&#x1EF8;" d="M281 0L281 260L298 214L1 700L80 700L341 273L299 273L560 700L634 700L337 214L354 260L354 0L281 0Z"  horiz-adv-x="635" vert-adv-y="1000"  />

      
      <glyph glyph-name="uni5a" unicode="&#x5a;" d="M45 0L45 51L531 664L539 636L52 636L52 700L607 700L607 649L122 36L113 64L619 64L619 0L45 0Z"  horiz-adv-x="651" vert-adv-y="1000"  />

      
      <glyph glyph-name="uni0179" unicode="&#x0179;" d="M45 0L45 51L531 664L539 636L52 636L52 700L607 700L607 649L122 36L113 64L619 64L619 0L45 0Z"  horiz-adv-x="651" vert-adv-y="1000"  />

      
      <glyph glyph-name="uni017D" unicode="&#x017D;" d="M45 0L45 51L531 664L539 636L52 636L52 700L607 700L607 649L122 36L113 64L619 64L619 0L45 0Z"  horiz-adv-x="651" vert-adv-y="1000"  />

      
      <glyph glyph-name="uni017B" unicode="&#x017B;" d="M45 0L45 51L531 664L539 636L52 636L52 700L607 700L607 649L122 36L113 64L619 64L619 0L45 0Z"  horiz-adv-x="651" vert-adv-y="1000"  />

      
      <glyph glyph-name="uni1E92" unicode="&#x1E92;" d="M45 0L45 51L531 664L539 636L52 636L52 700L607 700L607 649L122 36L113 64L619 64L619 0L45 0M340-190Q323-190 310-178Q297-166 297-147Q297-128 310-116Q323-104 340-104Q358-104 370.50-116Q383-128 383-147Q383-166 370.50-178Q358-190 340-190Z"  horiz-adv-x="651" vert-adv-y="1000"  />

      
      <glyph glyph-name="uni61" unicode="&#x61;" d="M428 0L428 116L425 135L425 329Q425 396 387.50 432Q350 468 276 468Q225 468 179 451Q133 434 101 406L69 459Q109 493 165 511.50Q221 530 283 530Q385 530 440.50 479.50Q496 429 496 326L496 0L428 0M247-5Q188-5 144.50 14.50Q101 34 78 68.50Q55 103 55 148Q55 189 74.50 222.50Q94 256 138.50 276.50Q183 297 258 297L439 297L439 244L260 244Q184 244 154.50 217Q125 190 125 150Q125 105 160 78Q195 51 258 51Q318 51 361.50 78.50Q405 106 425 158L441 109Q421 57 371.50 26Q322-5 247-5Z"  horiz-adv-x="590" vert-adv-y="1000"  />

      
      <glyph glyph-name="unie1" unicode="&#xe1;" d="M428 0L428 116L425 135L425 329Q425 396 387.50 432Q350 468 276 468Q225 468 179 451Q133 434 101 406L69 459Q109 493 165 511.50Q221 530 283 530Q385 530 440.50 479.50Q496 429 496 326L496 0L428 0M247-5Q188-5 144.50 14.50Q101 34 78 68.50Q55 103 55 148Q55 189 74.50 222.50Q94 256 138.50 276.50Q183 297 258 297L439 297L439 244L260 244Q184 244 154.50 217Q125 190 125 150Q125 105 160 78Q195 51 258 51Q318 51 361.50 78.50Q405 106 425 158L441 109Q421 57 371.50 26Q322-5 247-5M220 607L357 731L452 731L290 607L220 607Z"  horiz-adv-x="590" vert-adv-y="1000"  />

      
      <glyph glyph-name="uni0103" unicode="&#x0103;" d="M428 0L428 116L425 135L425 329Q425 396 387.50 432Q350 468 276 468Q225 468 179 451Q133 434 101 406L69 459Q109 493 165 511.50Q221 530 283 530Q385 530 440.50 479.50Q496 429 496 326L496 0L428 0M247-5Q188-5 144.50 14.50Q101 34 78 68.50Q55 103 55 148Q55 189 74.50 222.50Q94 256 138.50 276.50Q183 297 258 297L439 297L439 244L260 244Q184 244 154.50 217Q125 190 125 150Q125 105 160 78Q195 51 258 51Q318 51 361.50 78.50Q405 106 425 158L441 109Q421 57 371.50 26Q322-5 247-5M285 602Q222 602 178.50 636.50Q135 671 133 731L183 731Q185 692 214.50 669Q244 646 285 646Q327 646 356.50 669Q386 692 387 731L437 731Q435 671 391.50 636.50Q348 602 285 602Z"  horiz-adv-x="590" vert-adv-y="1000"  />

      
      <glyph glyph-name="uni1EAF" unicode="&#x1EAF;" d="M428 0L428 116L425 135L425 329Q425 396 387.50 432Q350 468 276 468Q225 468 179 451Q133 434 101 406L69 459Q109 493 165 511.50Q221 530 283 530Q385 530 440.50 479.50Q496 429 496 326L496 0L428 0M247-5Q188-5 144.50 14.50Q101 34 78 68.50Q55 103 55 148Q55 189 74.50 222.50Q94 256 138.50 276.50Q183 297 258 297L439 297L439 244L260 244Q184 244 154.50 217Q125 190 125 150Q125 105 160 78Q195 51 258 51Q318 51 361.50 78.50Q405 106 425 158L441 109Q421 57 371.50 26Q322-5 247-5Z"  horiz-adv-x="590" vert-adv-y="1000"  />

      
      </font>
</defs>
</svg>
