<?xml version="1.0" encoding="utf-8"?><svg viewBox="0 0 1 1" xmlns="http://www.w3.org/2000/svg" xmlns:xlink="http://www.w3.org/1999/xlink"><style>:root>svg{display:none}:root>svg:target{display:block}</style><svg viewBox="0 0 24 24" id="holder-icon" xmlns="http://www.w3.org/2000/svg"><path d="M6 15h1.5V9H5v1.5h1V15zm3.5 0H12q.425 0 .713-.288T13 14v-4q0-.425-.288-.713T12 9H9.5q-.425 0-.713.288T8.5 10v4q0 .425.288.713T9.5 15zm.5-1.5v-3h1.5v3H10zm4 1.5h1.5v-2.25L17.25 15H19l-2.25-3L19 9h-1.75l-1.75 2.25V9H14v6zm-9 6q-.825 0-1.413-.588T3 19V5q0-.825.588-1.413T5 3h14q.825 0 1.413.588T21 5v14q0 .825-.588 1.413T19 21H5z"/></svg></svg>